<mxfile host="www.draw.io" modified="2019-10-24T06:20:21.251Z" agent="Mozilla/5.0 (Macintosh; Intel Mac OS X 10_14_6) AppleWebKit/605.1.15 (KHTML, like Gecko) Version/13.0.2 Safari/605.1.15" etag="xxnWjHdPEfh7Fr7aS2Vr" version="12.1.4" type="github" pages="1">
  <diagram id="IZBP0mqrMQUnNwASLiVP" name="Page-1">
    <mxGraphModel dx="1864" dy="1138" grid="1" gridSize="10" guides="1" tooltips="1" connect="1" arrows="1" fold="1" page="1" pageScale="1" pageWidth="30000" pageHeight="40000" math="0" shadow="0">
      <root>
        <mxCell id="0"/>
        <mxCell id="1" parent="0"/>
        <mxCell id="gY8Zco-nnhK0H6aGIAgo-136" value="负载均衡器" style="rounded=0;whiteSpace=wrap;html=1;labelBackgroundColor=none;strokeColor=#6881B3;fillColor=none;fontSize=21;align=center;" parent="1" vertex="1">
          <mxGeometry x="914" y="2293" width="56" height="197" as="geometry"/>
        </mxCell>
        <mxCell id="gY8Zco-nnhK0H6aGIAgo-138" style="edgeStyle=orthogonalEdgeStyle;rounded=0;orthogonalLoop=1;jettySize=auto;html=1;exitX=1;exitY=0.5;exitDx=0;exitDy=0;entryX=0;entryY=0.5;entryDx=0;entryDy=0;strokeColor=#6881B3;fontSize=19;" parent="1" source="gY8Zco-nnhK0H6aGIAgo-140" target="gY8Zco-nnhK0H6aGIAgo-143" edge="1">
          <mxGeometry relative="1" as="geometry"/>
        </mxCell>
        <mxCell id="gY8Zco-nnhK0H6aGIAgo-139" value=":10001" style="text;html=1;resizable=0;points=[];align=center;verticalAlign=middle;labelBackgroundColor=#ffffff;fontSize=12;" parent="gY8Zco-nnhK0H6aGIAgo-138" vertex="1" connectable="0">
          <mxGeometry x="-0.3651" relative="1" as="geometry">
            <mxPoint x="16.5" y="0.5" as="offset"/>
          </mxGeometry>
        </mxCell>
        <mxCell id="gY8Zco-nnhK0H6aGIAgo-140" value="负载均衡器" style="rounded=0;whiteSpace=wrap;html=1;labelBackgroundColor=none;strokeColor=#6881B3;fillColor=none;fontSize=19;align=center;" parent="1" vertex="1">
          <mxGeometry x="505" y="2293" width="43" height="200" as="geometry"/>
        </mxCell>
        <mxCell id="gY8Zco-nnhK0H6aGIAgo-141" value="" style="endArrow=classic;html=1;strokeColor=#6881B3;fontSize=19;entryX=0;entryY=0.5;entryDx=0;entryDy=0;" parent="1" target="gY8Zco-nnhK0H6aGIAgo-140" edge="1">
          <mxGeometry width="50" height="50" relative="1" as="geometry">
            <mxPoint x="450" y="2393" as="sourcePoint"/>
            <mxPoint x="433.5" y="2368" as="targetPoint"/>
          </mxGeometry>
        </mxCell>
        <mxCell id="gY8Zco-nnhK0H6aGIAgo-142" style="edgeStyle=orthogonalEdgeStyle;rounded=0;orthogonalLoop=1;jettySize=auto;html=1;exitX=1;exitY=0.5;exitDx=0;exitDy=0;entryX=0;entryY=0.5;entryDx=0;entryDy=0;strokeColor=#6881B3;fontSize=15;" parent="1" source="gY8Zco-nnhK0H6aGIAgo-143" target="gY8Zco-nnhK0H6aGIAgo-145" edge="1">
          <mxGeometry relative="1" as="geometry"/>
        </mxCell>
        <mxCell id="gY8Zco-nnhK0H6aGIAgo-143" value="外联前置" style="rounded=0;whiteSpace=wrap;html=1;labelBackgroundColor=none;strokeColor=#6881B3;fillColor=none;fontSize=19;align=center;" parent="1" vertex="1">
          <mxGeometry x="649.5" y="2365" width="120" height="55" as="geometry"/>
        </mxCell>
        <mxCell id="gY8Zco-nnhK0H6aGIAgo-144" style="edgeStyle=orthogonalEdgeStyle;rounded=0;comic=0;jumpStyle=arc;jumpSize=15;orthogonalLoop=1;jettySize=auto;html=1;exitX=1;exitY=0.5;exitDx=0;exitDy=0;entryX=0;entryY=0.5;entryDx=0;entryDy=0;strokeColor=#0066CC;strokeWidth=1;fontSize=15;" parent="1" source="gY8Zco-nnhK0H6aGIAgo-145" target="gY8Zco-nnhK0H6aGIAgo-136" edge="1">
          <mxGeometry relative="1" as="geometry"/>
        </mxCell>
        <mxCell id="gY8Zco-nnhK0H6aGIAgo-145" value="firewall" style="rounded=0;whiteSpace=wrap;html=1;labelBackgroundColor=none;strokeColor=#6881B3;fillColor=none;fontSize=15;align=center;" parent="1" vertex="1">
          <mxGeometry x="814.5" y="2292" width="55" height="200" as="geometry"/>
        </mxCell>
        <mxCell id="gY8Zco-nnhK0H6aGIAgo-146" style="edgeStyle=orthogonalEdgeStyle;rounded=0;orthogonalLoop=1;jettySize=auto;html=1;exitX=0.5;exitY=0;exitDx=0;exitDy=0;entryX=0.5;entryY=1;entryDx=0;entryDy=0;strokeColor=#6881B3;fontSize=15;" parent="1" source="gY8Zco-nnhK0H6aGIAgo-162" target="gY8Zco-nnhK0H6aGIAgo-163" edge="1">
          <mxGeometry relative="1" as="geometry"/>
        </mxCell>
        <mxCell id="gY8Zco-nnhK0H6aGIAgo-147" value=":9999" style="text;html=1;resizable=0;points=[];align=center;verticalAlign=middle;labelBackgroundColor=#ffffff;fontSize=15;" parent="gY8Zco-nnhK0H6aGIAgo-146" vertex="1" connectable="0">
          <mxGeometry x="0.102" relative="1" as="geometry">
            <mxPoint as="offset"/>
          </mxGeometry>
        </mxCell>
        <mxCell id="gY8Zco-nnhK0H6aGIAgo-148" style="edgeStyle=orthogonalEdgeStyle;rounded=0;orthogonalLoop=1;jettySize=auto;html=1;exitX=1;exitY=0.25;exitDx=0;exitDy=0;entryX=0.25;entryY=0;entryDx=0;entryDy=0;strokeColor=#6881B3;fontSize=15;" parent="1" source="gY8Zco-nnhK0H6aGIAgo-162" target="gY8Zco-nnhK0H6aGIAgo-166" edge="1">
          <mxGeometry relative="1" as="geometry">
            <Array as="points">
              <mxPoint x="1166" y="2329"/>
              <mxPoint x="1168" y="2329"/>
              <mxPoint x="1168" y="2321"/>
              <mxPoint x="1194" y="2321"/>
              <mxPoint x="1194" y="2233"/>
              <mxPoint x="1828" y="2233"/>
            </Array>
          </mxGeometry>
        </mxCell>
        <mxCell id="gY8Zco-nnhK0H6aGIAgo-149" value=":7050" style="text;html=1;resizable=0;points=[];align=center;verticalAlign=middle;labelBackgroundColor=#ffffff;fontSize=15;" parent="gY8Zco-nnhK0H6aGIAgo-148" vertex="1" connectable="0">
          <mxGeometry x="0.4442" y="-1" relative="1" as="geometry">
            <mxPoint x="-38.5" as="offset"/>
          </mxGeometry>
        </mxCell>
        <mxCell id="gY8Zco-nnhK0H6aGIAgo-150" style="edgeStyle=orthogonalEdgeStyle;rounded=0;orthogonalLoop=1;jettySize=auto;html=1;exitX=1;exitY=0.25;exitDx=0;exitDy=0;entryX=0.25;entryY=0;entryDx=0;entryDy=0;strokeColor=#6881B3;fontSize=15;" parent="1" source="gY8Zco-nnhK0H6aGIAgo-162" target="gY8Zco-nnhK0H6aGIAgo-165" edge="1">
          <mxGeometry relative="1" as="geometry">
            <Array as="points">
              <mxPoint x="1167" y="2336"/>
              <mxPoint x="1213" y="2336"/>
              <mxPoint x="1213" y="2254"/>
              <mxPoint x="1583" y="2254"/>
            </Array>
          </mxGeometry>
        </mxCell>
        <mxCell id="gY8Zco-nnhK0H6aGIAgo-151" value=":7050" style="text;html=1;resizable=0;points=[];align=center;verticalAlign=middle;labelBackgroundColor=#ffffff;fontSize=15;" parent="gY8Zco-nnhK0H6aGIAgo-150" vertex="1" connectable="0">
          <mxGeometry x="0.6393" y="-1" relative="1" as="geometry">
            <mxPoint as="offset"/>
          </mxGeometry>
        </mxCell>
        <mxCell id="gY8Zco-nnhK0H6aGIAgo-152" style="edgeStyle=orthogonalEdgeStyle;rounded=0;orthogonalLoop=1;jettySize=auto;html=1;exitX=1;exitY=0.25;exitDx=0;exitDy=0;strokeColor=#6881B3;fontSize=15;" parent="1" source="gY8Zco-nnhK0H6aGIAgo-162" edge="1">
          <mxGeometry relative="1" as="geometry">
            <Array as="points">
              <mxPoint x="1167" y="2378"/>
              <mxPoint x="1239" y="2378"/>
              <mxPoint x="1239" y="2270"/>
              <mxPoint x="1335" y="2270"/>
            </Array>
            <mxPoint x="1335" y="2292" as="targetPoint"/>
          </mxGeometry>
        </mxCell>
        <mxCell id="gY8Zco-nnhK0H6aGIAgo-153" value=":7050" style="text;html=1;resizable=0;points=[];align=center;verticalAlign=middle;labelBackgroundColor=#ffffff;fontSize=15;" parent="gY8Zco-nnhK0H6aGIAgo-152" vertex="1" connectable="0">
          <mxGeometry x="0.4" relative="1" as="geometry">
            <mxPoint as="offset"/>
          </mxGeometry>
        </mxCell>
        <mxCell id="gY8Zco-nnhK0H6aGIAgo-154" style="edgeStyle=orthogonalEdgeStyle;rounded=0;orthogonalLoop=1;jettySize=auto;html=1;exitX=1;exitY=0.5;exitDx=0;exitDy=0;entryX=0;entryY=0.25;entryDx=0;entryDy=0;strokeColor=#6881B3;fontSize=15;" parent="1" source="gY8Zco-nnhK0H6aGIAgo-162" target="gY8Zco-nnhK0H6aGIAgo-167" edge="1">
          <mxGeometry relative="1" as="geometry">
            <Array as="points">
              <mxPoint x="1252" y="2394"/>
              <mxPoint x="1252" y="2526"/>
            </Array>
          </mxGeometry>
        </mxCell>
        <mxCell id="gY8Zco-nnhK0H6aGIAgo-155" value=":7051" style="text;html=1;resizable=0;points=[];align=center;verticalAlign=middle;labelBackgroundColor=#ffffff;fontSize=15;" parent="gY8Zco-nnhK0H6aGIAgo-154" vertex="1" connectable="0">
          <mxGeometry x="-0.6829" y="1" relative="1" as="geometry">
            <mxPoint as="offset"/>
          </mxGeometry>
        </mxCell>
        <mxCell id="gY8Zco-nnhK0H6aGIAgo-156" style="edgeStyle=orthogonalEdgeStyle;rounded=0;orthogonalLoop=1;jettySize=auto;html=1;exitX=1;exitY=0.75;exitDx=0;exitDy=0;entryX=0;entryY=0.75;entryDx=0;entryDy=0;strokeColor=#6881B3;fontSize=15;" parent="1" source="gY8Zco-nnhK0H6aGIAgo-162" target="gY8Zco-nnhK0H6aGIAgo-167" edge="1">
          <mxGeometry relative="1" as="geometry">
            <Array as="points">
              <mxPoint x="1167" y="2413"/>
              <mxPoint x="1230" y="2413"/>
              <mxPoint x="1230" y="2580"/>
            </Array>
          </mxGeometry>
        </mxCell>
        <mxCell id="gY8Zco-nnhK0H6aGIAgo-157" value=":7053" style="text;html=1;resizable=0;points=[];align=center;verticalAlign=middle;labelBackgroundColor=#ffffff;fontSize=15;" parent="gY8Zco-nnhK0H6aGIAgo-156" vertex="1" connectable="0">
          <mxGeometry x="-0.6413" y="1" relative="1" as="geometry">
            <mxPoint x="8" as="offset"/>
          </mxGeometry>
        </mxCell>
        <mxCell id="gY8Zco-nnhK0H6aGIAgo-158" style="edgeStyle=orthogonalEdgeStyle;rounded=0;orthogonalLoop=1;jettySize=auto;html=1;exitX=1;exitY=0.75;exitDx=0;exitDy=0;entryX=0;entryY=0.25;entryDx=0;entryDy=0;strokeColor=#6881B3;fontSize=15;" parent="1" source="gY8Zco-nnhK0H6aGIAgo-162" target="gY8Zco-nnhK0H6aGIAgo-168" edge="1">
          <mxGeometry relative="1" as="geometry">
            <Array as="points">
              <mxPoint x="1166" y="2434"/>
              <mxPoint x="1204" y="2434"/>
              <mxPoint x="1204" y="2650"/>
            </Array>
          </mxGeometry>
        </mxCell>
        <mxCell id="gY8Zco-nnhK0H6aGIAgo-159" value=":7051" style="text;html=1;resizable=0;points=[];align=center;verticalAlign=middle;labelBackgroundColor=#ffffff;fontSize=15;" parent="gY8Zco-nnhK0H6aGIAgo-158" vertex="1" connectable="0">
          <mxGeometry x="0.5294" y="1" relative="1" as="geometry">
            <mxPoint as="offset"/>
          </mxGeometry>
        </mxCell>
        <mxCell id="gY8Zco-nnhK0H6aGIAgo-160" style="edgeStyle=orthogonalEdgeStyle;rounded=0;orthogonalLoop=1;jettySize=auto;html=1;exitX=1;exitY=0.75;exitDx=0;exitDy=0;entryX=0;entryY=0.75;entryDx=0;entryDy=0;strokeColor=#6881B3;fontSize=15;" parent="1" source="gY8Zco-nnhK0H6aGIAgo-162" target="gY8Zco-nnhK0H6aGIAgo-168" edge="1">
          <mxGeometry relative="1" as="geometry">
            <Array as="points">
              <mxPoint x="1167" y="2460"/>
              <mxPoint x="1178" y="2460"/>
              <mxPoint x="1178" y="2653"/>
            </Array>
          </mxGeometry>
        </mxCell>
        <mxCell id="gY8Zco-nnhK0H6aGIAgo-161" value=":7053" style="text;html=1;resizable=0;points=[];align=center;verticalAlign=middle;labelBackgroundColor=#ffffff;fontSize=15;" parent="gY8Zco-nnhK0H6aGIAgo-160" vertex="1" connectable="0">
          <mxGeometry x="0.5072" y="1" relative="1" as="geometry">
            <mxPoint x="9" as="offset"/>
          </mxGeometry>
        </mxCell>
        <mxCell id="gY8Zco-nnhK0H6aGIAgo-162" value="互联网区U链业务应用服务器" style="rounded=0;whiteSpace=wrap;html=1;labelBackgroundColor=none;strokeColor=#666666;fillColor=#f5f5f5;fontSize=19;align=center;fontColor=#333333;" parent="1" vertex="1">
          <mxGeometry x="1035.5" y="2313.5" width="131" height="159" as="geometry"/>
        </mxCell>
        <mxCell id="gY8Zco-nnhK0H6aGIAgo-163" value="互联网区U链业务应用数据库" style="rounded=0;whiteSpace=wrap;html=1;labelBackgroundColor=none;strokeColor=#6881B3;fillColor=none;fontSize=19;align=center;" parent="1" vertex="1">
          <mxGeometry x="1041" y="2172" width="120" height="72" as="geometry"/>
        </mxCell>
        <mxCell id="gY8Zco-nnhK0H6aGIAgo-164" value="共识服务器1" style="rounded=0;whiteSpace=wrap;html=1;labelBackgroundColor=none;strokeColor=#d6b656;fillColor=#fff2cc;fontSize=19;align=center;" parent="1" vertex="1">
          <mxGeometry x="1292.5" y="2292.5" width="150" height="55" as="geometry"/>
        </mxCell>
        <mxCell id="gY8Zco-nnhK0H6aGIAgo-165" value="共识服务器2" style="rounded=0;whiteSpace=wrap;html=1;labelBackgroundColor=none;strokeColor=#d6b656;fillColor=#fff2cc;fontSize=19;align=center;" parent="1" vertex="1">
          <mxGeometry x="1545.5" y="2292.5" width="150" height="55" as="geometry"/>
        </mxCell>
        <mxCell id="gY8Zco-nnhK0H6aGIAgo-166" value="共识服务器3" style="rounded=0;whiteSpace=wrap;html=1;labelBackgroundColor=none;strokeColor=#d6b656;fillColor=#fff2cc;fontSize=19;align=center;" parent="1" vertex="1">
          <mxGeometry x="1791" y="2293" width="150" height="55" as="geometry"/>
        </mxCell>
        <mxCell id="gY8Zco-nnhK0H6aGIAgo-167" value="账本服务器1" style="rounded=0;whiteSpace=wrap;html=1;labelBackgroundColor=none;strokeColor=#9673a6;fillColor=#e1d5e7;fontSize=19;align=center;strokeWidth=2;" parent="1" vertex="1">
          <mxGeometry x="1292.5" y="2513" width="150" height="55" as="geometry"/>
        </mxCell>
        <mxCell id="gY8Zco-nnhK0H6aGIAgo-168" value="账本服务器2" style="rounded=0;whiteSpace=wrap;html=1;labelBackgroundColor=none;strokeColor=#9673a6;fillColor=#e1d5e7;fontSize=19;align=center;strokeWidth=2;" parent="1" vertex="1">
          <mxGeometry x="1292.5" y="2637" width="150" height="55" as="geometry"/>
        </mxCell>
        <mxCell id="gY8Zco-nnhK0H6aGIAgo-169" value="账本服务器3" style="rounded=0;whiteSpace=wrap;html=1;labelBackgroundColor=none;strokeColor=#9673a6;fillColor=#e1d5e7;fontSize=19;align=center;strokeWidth=2;" parent="1" vertex="1">
          <mxGeometry x="1791" y="2514.5" width="150" height="55" as="geometry"/>
        </mxCell>
        <mxCell id="gY8Zco-nnhK0H6aGIAgo-170" value="账本服务器4" style="rounded=0;whiteSpace=wrap;html=1;labelBackgroundColor=none;strokeColor=#9673a6;fillColor=#e1d5e7;fontSize=19;align=center;strokeWidth=2;" parent="1" vertex="1">
          <mxGeometry x="1791" y="2637.5" width="150" height="55" as="geometry"/>
        </mxCell>
        <mxCell id="gY8Zco-nnhK0H6aGIAgo-171" style="edgeStyle=orthogonalEdgeStyle;rounded=0;orthogonalLoop=1;jettySize=auto;html=1;entryX=0.5;entryY=0;entryDx=0;entryDy=0;strokeColor=#9673a6;fontSize=15;strokeWidth=2;fillColor=#e1d5e7;" parent="1" source="gY8Zco-nnhK0H6aGIAgo-204" target="gY8Zco-nnhK0H6aGIAgo-167" edge="1">
          <mxGeometry relative="1" as="geometry">
            <mxPoint x="1541" y="2488" as="sourcePoint"/>
            <Array as="points">
              <mxPoint x="1368" y="2464"/>
            </Array>
          </mxGeometry>
        </mxCell>
        <mxCell id="gY8Zco-nnhK0H6aGIAgo-172" value=":2375" style="text;html=1;resizable=0;points=[];align=center;verticalAlign=middle;labelBackgroundColor=#ffffff;fontSize=15;" parent="gY8Zco-nnhK0H6aGIAgo-171" vertex="1" connectable="0">
          <mxGeometry x="-0.1687" y="-1" relative="1" as="geometry">
            <mxPoint x="25.5" y="1.5" as="offset"/>
          </mxGeometry>
        </mxCell>
        <mxCell id="gY8Zco-nnhK0H6aGIAgo-173" style="edgeStyle=orthogonalEdgeStyle;rounded=0;orthogonalLoop=1;jettySize=auto;html=1;exitX=0.004;exitY=0.191;exitDx=0;exitDy=0;entryX=0.75;entryY=0;entryDx=0;entryDy=0;strokeColor=#9673a6;fontSize=15;exitPerimeter=0;strokeWidth=2;fillColor=#e1d5e7;" parent="1" source="gY8Zco-nnhK0H6aGIAgo-204" target="gY8Zco-nnhK0H6aGIAgo-167" edge="1">
          <mxGeometry relative="1" as="geometry">
            <Array as="points">
              <mxPoint x="1542" y="2490"/>
              <mxPoint x="1406" y="2490"/>
            </Array>
          </mxGeometry>
        </mxCell>
        <mxCell id="gY8Zco-nnhK0H6aGIAgo-174" value=":7051" style="text;html=1;resizable=0;points=[];align=center;verticalAlign=middle;labelBackgroundColor=#ffffff;fontSize=15;" parent="gY8Zco-nnhK0H6aGIAgo-173" vertex="1" connectable="0">
          <mxGeometry x="-0.2069" y="-1" relative="1" as="geometry">
            <mxPoint as="offset"/>
          </mxGeometry>
        </mxCell>
        <mxCell id="gY8Zco-nnhK0H6aGIAgo-175" style="edgeStyle=orthogonalEdgeStyle;rounded=0;orthogonalLoop=1;jettySize=auto;html=1;entryX=0.5;entryY=1;entryDx=0;entryDy=0;strokeColor=#9673a6;fontSize=15;exitX=0.004;exitY=0.939;exitDx=0;exitDy=0;exitPerimeter=0;strokeWidth=2;fillColor=#e1d5e7;" parent="1" source="gY8Zco-nnhK0H6aGIAgo-204" target="gY8Zco-nnhK0H6aGIAgo-168" edge="1">
          <mxGeometry relative="1" as="geometry">
            <Array as="points">
              <mxPoint x="1542" y="2758"/>
              <mxPoint x="1368" y="2758"/>
            </Array>
          </mxGeometry>
        </mxCell>
        <mxCell id="gY8Zco-nnhK0H6aGIAgo-176" value=":2375" style="text;html=1;resizable=0;points=[];align=center;verticalAlign=middle;labelBackgroundColor=#ffffff;fontSize=15;" parent="gY8Zco-nnhK0H6aGIAgo-175" vertex="1" connectable="0">
          <mxGeometry x="-0.4012" y="1" relative="1" as="geometry">
            <mxPoint x="10" as="offset"/>
          </mxGeometry>
        </mxCell>
        <mxCell id="gY8Zco-nnhK0H6aGIAgo-177" style="edgeStyle=orthogonalEdgeStyle;rounded=0;orthogonalLoop=1;jettySize=auto;html=1;entryX=0.75;entryY=1;entryDx=0;entryDy=0;strokeColor=#9673a6;fontSize=15;strokeWidth=2;exitX=-0.027;exitY=0.857;exitDx=0;exitDy=0;exitPerimeter=0;fillColor=#e1d5e7;" parent="1" source="gY8Zco-nnhK0H6aGIAgo-204" target="gY8Zco-nnhK0H6aGIAgo-168" edge="1">
          <mxGeometry relative="1" as="geometry">
            <mxPoint x="1541" y="2706" as="sourcePoint"/>
            <Array as="points">
              <mxPoint x="1406" y="2738"/>
            </Array>
          </mxGeometry>
        </mxCell>
        <mxCell id="gY8Zco-nnhK0H6aGIAgo-178" value=":7051" style="text;html=1;resizable=0;points=[];align=center;verticalAlign=middle;labelBackgroundColor=#ffffff;fontSize=15;" parent="gY8Zco-nnhK0H6aGIAgo-177" vertex="1" connectable="0">
          <mxGeometry x="-0.1356" relative="1" as="geometry">
            <mxPoint x="6" as="offset"/>
          </mxGeometry>
        </mxCell>
        <mxCell id="gY8Zco-nnhK0H6aGIAgo-179" style="edgeStyle=orthogonalEdgeStyle;rounded=0;orthogonalLoop=1;jettySize=auto;html=1;exitX=0.994;exitY=0.081;exitDx=0;exitDy=0;entryX=0.5;entryY=0;entryDx=0;entryDy=0;strokeColor=#9673a6;fontSize=15;exitPerimeter=0;strokeWidth=2;fillColor=#e1d5e7;" parent="1" source="gY8Zco-nnhK0H6aGIAgo-204" target="gY8Zco-nnhK0H6aGIAgo-169" edge="1">
          <mxGeometry relative="1" as="geometry">
            <Array as="points">
              <mxPoint x="1866" y="2472"/>
            </Array>
          </mxGeometry>
        </mxCell>
        <mxCell id="gY8Zco-nnhK0H6aGIAgo-180" value=":2375" style="text;html=1;resizable=0;points=[];align=center;verticalAlign=middle;labelBackgroundColor=#ffffff;fontSize=15;" parent="gY8Zco-nnhK0H6aGIAgo-179" vertex="1" connectable="0">
          <mxGeometry x="-0.6149" y="-1" relative="1" as="geometry">
            <mxPoint x="-1.5" y="-0.5" as="offset"/>
          </mxGeometry>
        </mxCell>
        <mxCell id="gY8Zco-nnhK0H6aGIAgo-181" style="edgeStyle=orthogonalEdgeStyle;rounded=0;orthogonalLoop=1;jettySize=auto;html=1;exitX=1.004;exitY=0.167;exitDx=0;exitDy=0;entryX=0.25;entryY=0;entryDx=0;entryDy=0;strokeColor=#9673a6;fontSize=15;exitPerimeter=0;strokeWidth=2;fillColor=#e1d5e7;" parent="1" source="gY8Zco-nnhK0H6aGIAgo-204" target="gY8Zco-nnhK0H6aGIAgo-169" edge="1">
          <mxGeometry relative="1" as="geometry">
            <Array as="points">
              <mxPoint x="1692" y="2492"/>
              <mxPoint x="1828" y="2492"/>
            </Array>
          </mxGeometry>
        </mxCell>
        <mxCell id="gY8Zco-nnhK0H6aGIAgo-182" value=":7051" style="text;html=1;resizable=0;points=[];align=center;verticalAlign=middle;labelBackgroundColor=#ffffff;fontSize=15;" parent="gY8Zco-nnhK0H6aGIAgo-181" vertex="1" connectable="0">
          <mxGeometry x="-0.5826" relative="1" as="geometry">
            <mxPoint x="15.5" as="offset"/>
          </mxGeometry>
        </mxCell>
        <mxCell id="gY8Zco-nnhK0H6aGIAgo-183" style="edgeStyle=orthogonalEdgeStyle;rounded=0;orthogonalLoop=1;jettySize=auto;html=1;entryX=0.5;entryY=1;entryDx=0;entryDy=0;strokeColor=#9673a6;fontSize=15;strokeWidth=2;fillColor=#e1d5e7;" parent="1" target="gY8Zco-nnhK0H6aGIAgo-170" edge="1">
          <mxGeometry relative="1" as="geometry">
            <Array as="points">
              <mxPoint x="1694" y="2768"/>
              <mxPoint x="1866" y="2768"/>
            </Array>
            <mxPoint x="1694" y="2768" as="sourcePoint"/>
          </mxGeometry>
        </mxCell>
        <mxCell id="gY8Zco-nnhK0H6aGIAgo-184" value=":2375" style="text;html=1;resizable=0;points=[];align=center;verticalAlign=middle;labelBackgroundColor=#ffffff;fontSize=15;" parent="gY8Zco-nnhK0H6aGIAgo-183" vertex="1" connectable="0">
          <mxGeometry x="-0.6564" relative="1" as="geometry">
            <mxPoint x="29" as="offset"/>
          </mxGeometry>
        </mxCell>
        <mxCell id="gY8Zco-nnhK0H6aGIAgo-185" style="edgeStyle=orthogonalEdgeStyle;rounded=0;orthogonalLoop=1;jettySize=auto;html=1;entryX=0.25;entryY=1;entryDx=0;entryDy=0;strokeColor=#9673a6;fontSize=15;strokeWidth=2;exitX=0.987;exitY=0.892;exitDx=0;exitDy=0;exitPerimeter=0;fillColor=#e1d5e7;" parent="1" source="gY8Zco-nnhK0H6aGIAgo-204" target="gY8Zco-nnhK0H6aGIAgo-170" edge="1">
          <mxGeometry relative="1" as="geometry">
            <Array as="points">
              <mxPoint x="1688" y="2750"/>
              <mxPoint x="1688" y="2748"/>
              <mxPoint x="1828" y="2748"/>
            </Array>
            <mxPoint x="1688" y="2714" as="sourcePoint"/>
          </mxGeometry>
        </mxCell>
        <mxCell id="gY8Zco-nnhK0H6aGIAgo-186" value=":7051" style="text;html=1;resizable=0;points=[];align=center;verticalAlign=middle;labelBackgroundColor=#ffffff;fontSize=15;" parent="gY8Zco-nnhK0H6aGIAgo-185" vertex="1" connectable="0">
          <mxGeometry x="-0.6303" relative="1" as="geometry">
            <mxPoint x="28" as="offset"/>
          </mxGeometry>
        </mxCell>
        <mxCell id="gY8Zco-nnhK0H6aGIAgo-187" style="edgeStyle=orthogonalEdgeStyle;rounded=0;orthogonalLoop=1;jettySize=auto;html=1;exitX=0.109;exitY=-0.005;exitDx=0;exitDy=0;entryX=0.5;entryY=1;entryDx=0;entryDy=0;strokeColor=#d6b656;fontSize=15;exitPerimeter=0;strokeWidth=2;fillColor=#fff2cc;" parent="1" source="gY8Zco-nnhK0H6aGIAgo-204" target="gY8Zco-nnhK0H6aGIAgo-164" edge="1">
          <mxGeometry relative="1" as="geometry">
            <Array as="points">
              <mxPoint x="1558" y="2413"/>
              <mxPoint x="1368" y="2413"/>
            </Array>
          </mxGeometry>
        </mxCell>
        <mxCell id="gY8Zco-nnhK0H6aGIAgo-188" value=":2375" style="text;html=1;resizable=0;points=[];align=center;verticalAlign=middle;labelBackgroundColor=#ffffff;fontSize=15;" parent="gY8Zco-nnhK0H6aGIAgo-187" vertex="1" connectable="0">
          <mxGeometry x="-0.0047" relative="1" as="geometry">
            <mxPoint as="offset"/>
          </mxGeometry>
        </mxCell>
        <mxCell id="gY8Zco-nnhK0H6aGIAgo-189" style="edgeStyle=orthogonalEdgeStyle;rounded=0;orthogonalLoop=1;jettySize=auto;html=1;exitX=0.25;exitY=0;exitDx=0;exitDy=0;entryX=0.75;entryY=1;entryDx=0;entryDy=0;strokeColor=#d6b656;fontSize=15;strokeWidth=2;fillColor=#fff2cc;" parent="1" source="gY8Zco-nnhK0H6aGIAgo-204" target="gY8Zco-nnhK0H6aGIAgo-164" edge="1">
          <mxGeometry relative="1" as="geometry">
            <Array as="points">
              <mxPoint x="1580" y="2389"/>
              <mxPoint x="1406" y="2389"/>
            </Array>
          </mxGeometry>
        </mxCell>
        <mxCell id="gY8Zco-nnhK0H6aGIAgo-190" value=":7050" style="text;html=1;resizable=0;points=[];align=center;verticalAlign=middle;labelBackgroundColor=#ffffff;fontSize=15;" parent="gY8Zco-nnhK0H6aGIAgo-189" vertex="1" connectable="0">
          <mxGeometry x="0.4412" y="1" relative="1" as="geometry">
            <mxPoint as="offset"/>
          </mxGeometry>
        </mxCell>
        <mxCell id="gY8Zco-nnhK0H6aGIAgo-191" style="edgeStyle=orthogonalEdgeStyle;rounded=0;orthogonalLoop=1;jettySize=auto;html=1;exitX=0.5;exitY=0;exitDx=0;exitDy=0;entryX=0.38;entryY=0.991;entryDx=0;entryDy=0;entryPerimeter=0;strokeColor=#d6b656;fontSize=15;strokeWidth=2;fillColor=#fff2cc;" parent="1" source="gY8Zco-nnhK0H6aGIAgo-204" target="gY8Zco-nnhK0H6aGIAgo-165" edge="1">
          <mxGeometry relative="1" as="geometry">
            <Array as="points">
              <mxPoint x="1603" y="2464"/>
            </Array>
          </mxGeometry>
        </mxCell>
        <mxCell id="gY8Zco-nnhK0H6aGIAgo-192" value=":7050" style="text;html=1;resizable=0;points=[];align=center;verticalAlign=middle;labelBackgroundColor=#ffffff;fontSize=15;" parent="gY8Zco-nnhK0H6aGIAgo-191" vertex="1" connectable="0">
          <mxGeometry x="0.3043" y="1" relative="1" as="geometry">
            <mxPoint as="offset"/>
          </mxGeometry>
        </mxCell>
        <mxCell id="gY8Zco-nnhK0H6aGIAgo-193" style="edgeStyle=orthogonalEdgeStyle;rounded=0;orthogonalLoop=1;jettySize=auto;html=1;exitX=0.5;exitY=0;exitDx=0;exitDy=0;entryX=0.638;entryY=0.991;entryDx=0;entryDy=0;entryPerimeter=0;strokeColor=#d6b656;fontSize=15;strokeWidth=2;fillColor=#fff2cc;" parent="1" source="gY8Zco-nnhK0H6aGIAgo-204" target="gY8Zco-nnhK0H6aGIAgo-165" edge="1">
          <mxGeometry relative="1" as="geometry">
            <Array as="points">
              <mxPoint x="1641" y="2464"/>
            </Array>
          </mxGeometry>
        </mxCell>
        <mxCell id="gY8Zco-nnhK0H6aGIAgo-194" value=":2375" style="text;html=1;resizable=0;points=[];align=center;verticalAlign=middle;labelBackgroundColor=#ffffff;fontSize=15;" parent="gY8Zco-nnhK0H6aGIAgo-193" vertex="1" connectable="0">
          <mxGeometry x="0.3333" relative="1" as="geometry">
            <mxPoint y="-2" as="offset"/>
          </mxGeometry>
        </mxCell>
        <mxCell id="gY8Zco-nnhK0H6aGIAgo-195" style="edgeStyle=orthogonalEdgeStyle;rounded=0;orthogonalLoop=1;jettySize=auto;html=1;exitX=0.89;exitY=-0.005;exitDx=0;exitDy=0;entryX=0.5;entryY=1;entryDx=0;entryDy=0;strokeColor=#d6b656;fontSize=15;exitPerimeter=0;strokeWidth=2;fillColor=#fff2cc;" parent="1" source="gY8Zco-nnhK0H6aGIAgo-204" target="gY8Zco-nnhK0H6aGIAgo-166" edge="1">
          <mxGeometry relative="1" as="geometry">
            <Array as="points">
              <mxPoint x="1675" y="2464"/>
              <mxPoint x="1677" y="2464"/>
              <mxPoint x="1677" y="2410"/>
              <mxPoint x="1865" y="2410"/>
            </Array>
          </mxGeometry>
        </mxCell>
        <mxCell id="gY8Zco-nnhK0H6aGIAgo-196" value=":2375" style="text;html=1;resizable=0;points=[];align=center;verticalAlign=middle;labelBackgroundColor=#ffffff;fontSize=15;" parent="gY8Zco-nnhK0H6aGIAgo-195" vertex="1" connectable="0">
          <mxGeometry x="-0.3302" y="-1" relative="1" as="geometry">
            <mxPoint x="5" as="offset"/>
          </mxGeometry>
        </mxCell>
        <mxCell id="gY8Zco-nnhK0H6aGIAgo-197" style="edgeStyle=orthogonalEdgeStyle;rounded=0;orthogonalLoop=1;jettySize=auto;html=1;exitX=0.75;exitY=0;exitDx=0;exitDy=0;entryX=0.25;entryY=1;entryDx=0;entryDy=0;strokeColor=#d6b656;fontSize=15;strokeWidth=2;fillColor=#fff2cc;" parent="1" source="gY8Zco-nnhK0H6aGIAgo-204" target="gY8Zco-nnhK0H6aGIAgo-166" edge="1">
          <mxGeometry relative="1" as="geometry">
            <Array as="points">
              <mxPoint x="1661" y="2464"/>
              <mxPoint x="1661" y="2386"/>
              <mxPoint x="1828" y="2386"/>
            </Array>
          </mxGeometry>
        </mxCell>
        <mxCell id="gY8Zco-nnhK0H6aGIAgo-198" value=":7050" style="text;html=1;resizable=0;points=[];align=center;verticalAlign=middle;labelBackgroundColor=#ffffff;fontSize=15;" parent="gY8Zco-nnhK0H6aGIAgo-197" vertex="1" connectable="0">
          <mxGeometry x="0.064" y="1" relative="1" as="geometry">
            <mxPoint as="offset"/>
          </mxGeometry>
        </mxCell>
        <mxCell id="z6z0s-MIZYobqjLazBSK-6" style="edgeStyle=orthogonalEdgeStyle;rounded=0;orthogonalLoop=1;jettySize=auto;html=1;exitX=0.25;exitY=1;exitDx=0;exitDy=0;entryX=1;entryY=0.5;entryDx=0;entryDy=0;fontSize=19;fillColor=#d5e8d4;strokeColor=#82b366;" parent="1" source="gY8Zco-nnhK0H6aGIAgo-204" target="z6z0s-MIZYobqjLazBSK-1" edge="1">
          <mxGeometry relative="1" as="geometry">
            <Array as="points">
              <mxPoint x="1580" y="2950"/>
            </Array>
          </mxGeometry>
        </mxCell>
        <mxCell id="z6z0s-MIZYobqjLazBSK-8" value="&lt;span style=&quot;font-size: 15px&quot;&gt;:5671&lt;br&gt;:5672&lt;br&gt;:15672&lt;br&gt;:4369&lt;br&gt;:25672&lt;br&gt;&lt;/span&gt;" style="text;html=1;resizable=0;points=[];align=left;verticalAlign=middle;labelBackgroundColor=#ffffff;fontSize=19;" parent="z6z0s-MIZYobqjLazBSK-6" vertex="1" connectable="0">
          <mxGeometry x="0.7073" y="-1" relative="1" as="geometry">
            <mxPoint y="1" as="offset"/>
          </mxGeometry>
        </mxCell>
        <mxCell id="wNHHVUWYG327KDc-E-Of-117" style="edgeStyle=orthogonalEdgeStyle;rounded=0;orthogonalLoop=1;jettySize=auto;html=1;exitX=0.12;exitY=1.003;exitDx=0;exitDy=0;entryX=1;entryY=0.5;entryDx=0;entryDy=0;startArrow=none;startFill=0;endArrow=classic;endFill=1;strokeColor=#6881B3;exitPerimeter=0;" edge="1" parent="1" source="gY8Zco-nnhK0H6aGIAgo-204" target="z6z0s-MIZYobqjLazBSK-3">
          <mxGeometry relative="1" as="geometry"/>
        </mxCell>
        <mxCell id="wNHHVUWYG327KDc-E-Of-118" value=":5432" style="text;html=1;resizable=0;points=[];align=center;verticalAlign=middle;labelBackgroundColor=#ffffff;" vertex="1" connectable="0" parent="wNHHVUWYG327KDc-E-Of-117">
          <mxGeometry x="0.5556" relative="1" as="geometry">
            <mxPoint as="offset"/>
          </mxGeometry>
        </mxCell>
        <mxCell id="wNHHVUWYG327KDc-E-Of-124" style="edgeStyle=orthogonalEdgeStyle;rounded=0;jumpStyle=arc;jumpSize=10;orthogonalLoop=1;jettySize=auto;html=1;exitX=0.5;exitY=1;exitDx=0;exitDy=0;startArrow=none;startFill=0;endArrow=classic;endFill=1;strokeColor=#b85450;fontSize=12;fillColor=#f8cecc;" edge="1" parent="1" source="gY8Zco-nnhK0H6aGIAgo-204" target="gY8Zco-nnhK0H6aGIAgo-221">
          <mxGeometry relative="1" as="geometry"/>
        </mxCell>
        <mxCell id="wNHHVUWYG327KDc-E-Of-125" value=":5432" style="text;html=1;resizable=0;points=[];align=center;verticalAlign=middle;labelBackgroundColor=#ffffff;fontSize=12;" vertex="1" connectable="0" parent="wNHHVUWYG327KDc-E-Of-124">
          <mxGeometry x="0.5619" y="2" relative="1" as="geometry">
            <mxPoint as="offset"/>
          </mxGeometry>
        </mxCell>
        <mxCell id="gY8Zco-nnhK0H6aGIAgo-204" value="区块链服务平台服务器" style="rounded=0;whiteSpace=wrap;html=1;labelBackgroundColor=none;strokeColor=#6c8ebf;fillColor=#dae8fc;fontSize=19;align=center;strokeWidth=2;" parent="1" vertex="1">
          <mxGeometry x="1542" y="2444" width="150" height="343" as="geometry"/>
        </mxCell>
        <mxCell id="gY8Zco-nnhK0H6aGIAgo-205" value="" style="endArrow=classic;html=1;strokeColor=#9673a6;fontSize=15;entryX=1;entryY=0.25;entryDx=0;entryDy=0;strokeWidth=2;fillColor=#e1d5e7;" parent="1" target="gY8Zco-nnhK0H6aGIAgo-167" edge="1">
          <mxGeometry width="50" height="50" relative="1" as="geometry">
            <mxPoint x="1540" y="2527" as="sourcePoint"/>
            <mxPoint x="1528" y="2575" as="targetPoint"/>
          </mxGeometry>
        </mxCell>
        <mxCell id="gY8Zco-nnhK0H6aGIAgo-206" value=":7052" style="text;html=1;resizable=0;points=[];align=center;verticalAlign=middle;labelBackgroundColor=#ffffff;fontSize=15;" parent="gY8Zco-nnhK0H6aGIAgo-205" vertex="1" connectable="0">
          <mxGeometry x="0.361" y="-1" relative="1" as="geometry">
            <mxPoint x="5" as="offset"/>
          </mxGeometry>
        </mxCell>
        <mxCell id="gY8Zco-nnhK0H6aGIAgo-207" value="" style="endArrow=classic;html=1;strokeColor=#9673a6;fontSize=15;entryX=1;entryY=0.75;entryDx=0;entryDy=0;strokeWidth=2;fillColor=#e1d5e7;" parent="1" target="gY8Zco-nnhK0H6aGIAgo-167" edge="1">
          <mxGeometry width="50" height="50" relative="1" as="geometry">
            <mxPoint x="1540" y="2554" as="sourcePoint"/>
            <mxPoint x="1528" y="2621" as="targetPoint"/>
          </mxGeometry>
        </mxCell>
        <mxCell id="gY8Zco-nnhK0H6aGIAgo-208" value=":7053" style="text;html=1;resizable=0;points=[];align=center;verticalAlign=middle;labelBackgroundColor=#ffffff;fontSize=15;" parent="gY8Zco-nnhK0H6aGIAgo-207" vertex="1" connectable="0">
          <mxGeometry x="0.2805" y="-3" relative="1" as="geometry">
            <mxPoint x="1" as="offset"/>
          </mxGeometry>
        </mxCell>
        <mxCell id="gY8Zco-nnhK0H6aGIAgo-209" value="" style="endArrow=classic;html=1;strokeColor=#9673a6;fontSize=15;entryX=1;entryY=0.25;entryDx=0;entryDy=0;exitX=-0.006;exitY=0.365;exitDx=0;exitDy=0;exitPerimeter=0;strokeWidth=2;fillColor=#e1d5e7;" parent="1" edge="1">
          <mxGeometry width="50" height="50" relative="1" as="geometry">
            <mxPoint x="1542.5" y="2648.5" as="sourcePoint"/>
            <mxPoint x="1443.9" y="2648.5550000000003" as="targetPoint"/>
          </mxGeometry>
        </mxCell>
        <mxCell id="gY8Zco-nnhK0H6aGIAgo-210" value=":7052" style="text;html=1;resizable=0;points=[];align=center;verticalAlign=middle;labelBackgroundColor=#ffffff;fontSize=15;" parent="gY8Zco-nnhK0H6aGIAgo-209" vertex="1" connectable="0">
          <mxGeometry x="0.3894" y="-4" relative="1" as="geometry">
            <mxPoint x="5" as="offset"/>
          </mxGeometry>
        </mxCell>
        <mxCell id="gY8Zco-nnhK0H6aGIAgo-211" value="" style="endArrow=classic;html=1;strokeColor=#9673a6;fontSize=15;entryX=1;entryY=0.25;entryDx=0;entryDy=0;exitX=-0.006;exitY=0.365;exitDx=0;exitDy=0;exitPerimeter=0;strokeWidth=2;fillColor=#e1d5e7;" parent="1" edge="1">
          <mxGeometry width="50" height="50" relative="1" as="geometry">
            <mxPoint x="1541" y="2681.5" as="sourcePoint"/>
            <mxPoint x="1442.4" y="2681.5550000000003" as="targetPoint"/>
          </mxGeometry>
        </mxCell>
        <mxCell id="gY8Zco-nnhK0H6aGIAgo-212" value=":7053" style="text;html=1;resizable=0;points=[];align=center;verticalAlign=middle;labelBackgroundColor=#ffffff;fontSize=15;" parent="gY8Zco-nnhK0H6aGIAgo-211" vertex="1" connectable="0">
          <mxGeometry x="0.359" y="-1" relative="1" as="geometry">
            <mxPoint x="7" as="offset"/>
          </mxGeometry>
        </mxCell>
        <mxCell id="gY8Zco-nnhK0H6aGIAgo-213" value="" style="endArrow=classic;html=1;strokeColor=#9673a6;fontSize=15;entryX=0;entryY=0.25;entryDx=0;entryDy=0;strokeWidth=2;fillColor=#e1d5e7;" parent="1" target="gY8Zco-nnhK0H6aGIAgo-169" edge="1">
          <mxGeometry width="50" height="50" relative="1" as="geometry">
            <mxPoint x="1688" y="2528" as="sourcePoint"/>
            <mxPoint x="1769" y="2549" as="targetPoint"/>
          </mxGeometry>
        </mxCell>
        <mxCell id="gY8Zco-nnhK0H6aGIAgo-214" value=":7052" style="text;html=1;resizable=0;points=[];align=center;verticalAlign=middle;labelBackgroundColor=#ffffff;fontSize=15;" parent="gY8Zco-nnhK0H6aGIAgo-213" vertex="1" connectable="0">
          <mxGeometry x="-0.3648" y="2" relative="1" as="geometry">
            <mxPoint x="4" as="offset"/>
          </mxGeometry>
        </mxCell>
        <mxCell id="gY8Zco-nnhK0H6aGIAgo-215" value="" style="endArrow=classic;html=1;strokeColor=#9673a6;fontSize=15;entryX=0;entryY=0.25;entryDx=0;entryDy=0;strokeWidth=2;fillColor=#e1d5e7;" parent="1" edge="1">
          <mxGeometry width="50" height="50" relative="1" as="geometry">
            <mxPoint x="1692" y="2557" as="sourcePoint"/>
            <mxPoint x="1792.1999999999994" y="2556.9730000000004" as="targetPoint"/>
          </mxGeometry>
        </mxCell>
        <mxCell id="gY8Zco-nnhK0H6aGIAgo-216" value=":7053" style="text;html=1;resizable=0;points=[];align=center;verticalAlign=middle;labelBackgroundColor=#ffffff;fontSize=15;" parent="gY8Zco-nnhK0H6aGIAgo-215" vertex="1" connectable="0">
          <mxGeometry x="-0.5086" y="3" relative="1" as="geometry">
            <mxPoint x="10" as="offset"/>
          </mxGeometry>
        </mxCell>
        <mxCell id="gY8Zco-nnhK0H6aGIAgo-217" value="" style="endArrow=classic;html=1;strokeColor=#9673a6;fontSize=15;entryX=0;entryY=0.25;entryDx=0;entryDy=0;strokeWidth=2;exitX=1;exitY=0.606;exitDx=0;exitDy=0;exitPerimeter=0;fillColor=#e1d5e7;" parent="1" source="gY8Zco-nnhK0H6aGIAgo-204" target="gY8Zco-nnhK0H6aGIAgo-170" edge="1">
          <mxGeometry width="50" height="50" relative="1" as="geometry">
            <mxPoint x="1694" y="2626" as="sourcePoint"/>
            <mxPoint x="1748" y="2628" as="targetPoint"/>
          </mxGeometry>
        </mxCell>
        <mxCell id="gY8Zco-nnhK0H6aGIAgo-218" value=":7052" style="text;html=1;resizable=0;points=[];align=center;verticalAlign=middle;labelBackgroundColor=#ffffff;fontSize=15;" parent="gY8Zco-nnhK0H6aGIAgo-217" vertex="1" connectable="0">
          <mxGeometry x="-0.384" y="1" relative="1" as="geometry">
            <mxPoint x="9" as="offset"/>
          </mxGeometry>
        </mxCell>
        <mxCell id="gY8Zco-nnhK0H6aGIAgo-219" value="" style="endArrow=classic;html=1;strokeColor=#9673a6;fontSize=15;entryX=0;entryY=0.75;entryDx=0;entryDy=0;strokeWidth=2;fillColor=#e1d5e7;" parent="1" target="gY8Zco-nnhK0H6aGIAgo-170" edge="1">
          <mxGeometry width="50" height="50" relative="1" as="geometry">
            <mxPoint x="1692" y="2679" as="sourcePoint"/>
            <mxPoint x="1753" y="2686" as="targetPoint"/>
          </mxGeometry>
        </mxCell>
        <mxCell id="gY8Zco-nnhK0H6aGIAgo-220" value=":7053" style="text;html=1;resizable=0;points=[];align=center;verticalAlign=middle;labelBackgroundColor=#ffffff;fontSize=15;" parent="gY8Zco-nnhK0H6aGIAgo-219" vertex="1" connectable="0">
          <mxGeometry x="-0.3399" y="1" relative="1" as="geometry">
            <mxPoint x="8" as="offset"/>
          </mxGeometry>
        </mxCell>
        <mxCell id="gY8Zco-nnhK0H6aGIAgo-221" value="平台数据库&lt;br&gt;PostgreSQL" style="rounded=0;whiteSpace=wrap;html=1;labelBackgroundColor=none;strokeColor=#6c8ebf;fillColor=#dae8fc;fontSize=19;align=center;strokeWidth=2;" parent="1" vertex="1">
          <mxGeometry x="1538" y="2998" width="160" height="85" as="geometry"/>
        </mxCell>
        <mxCell id="gY8Zco-nnhK0H6aGIAgo-247" style="edgeStyle=orthogonalEdgeStyle;rounded=0;comic=0;jumpStyle=arc;jumpSize=15;orthogonalLoop=1;jettySize=auto;html=1;entryX=0.75;entryY=0;entryDx=0;entryDy=0;strokeColor=#6881B3;fontSize=15;exitX=-0.013;exitY=0.107;exitDx=0;exitDy=0;exitPerimeter=0;" parent="1" source="wNHHVUWYG327KDc-E-Of-27" target="gY8Zco-nnhK0H6aGIAgo-165" edge="1">
          <mxGeometry relative="1" as="geometry">
            <Array as="points">
              <mxPoint x="1658" y="2220"/>
            </Array>
            <mxPoint x="2406" y="2220" as="sourcePoint"/>
          </mxGeometry>
        </mxCell>
        <mxCell id="gY8Zco-nnhK0H6aGIAgo-248" value=":7050" style="text;html=1;resizable=0;points=[];align=center;verticalAlign=middle;labelBackgroundColor=#ffffff;fontSize=15;" parent="gY8Zco-nnhK0H6aGIAgo-247" vertex="1" connectable="0">
          <mxGeometry x="0.5857" relative="1" as="geometry">
            <mxPoint as="offset"/>
          </mxGeometry>
        </mxCell>
        <mxCell id="wNHHVUWYG327KDc-E-Of-90" value=":7250 -&amp;gt;:7050" style="text;html=1;resizable=0;points=[];align=center;verticalAlign=middle;labelBackgroundColor=#ffffff;" vertex="1" connectable="0" parent="gY8Zco-nnhK0H6aGIAgo-247">
          <mxGeometry x="-0.5858" y="-3" relative="1" as="geometry">
            <mxPoint x="40" y="3" as="offset"/>
          </mxGeometry>
        </mxCell>
        <mxCell id="gY8Zco-nnhK0H6aGIAgo-252" value=":7001" style="text;html=1;resizable=0;points=[];autosize=1;align=left;verticalAlign=top;spacingTop=-4;fontSize=15;fillColor=#ffffff;" parent="1" vertex="1">
          <mxGeometry x="493.5" y="2329.5" width="48" height="18" as="geometry"/>
        </mxCell>
        <mxCell id="gY8Zco-nnhK0H6aGIAgo-255" value="" style="endArrow=classic;html=1;strokeColor=#0066CC;strokeWidth=1;fontSize=15;entryX=0;entryY=0.5;entryDx=0;entryDy=0;exitX=1;exitY=0.5;exitDx=0;exitDy=0;" parent="1" source="gY8Zco-nnhK0H6aGIAgo-136" target="gY8Zco-nnhK0H6aGIAgo-162" edge="1">
          <mxGeometry width="50" height="50" relative="1" as="geometry">
            <mxPoint x="994" y="2455" as="sourcePoint"/>
            <mxPoint x="1044" y="2405" as="targetPoint"/>
          </mxGeometry>
        </mxCell>
        <mxCell id="gY8Zco-nnhK0H6aGIAgo-263" value="" style="endArrow=classic;startArrow=classic;html=1;strokeColor=#d6b656;exitX=1;exitY=0.5;exitDx=0;exitDy=0;entryX=0;entryY=0.5;entryDx=0;entryDy=0;fillColor=#fff2cc;" parent="1" source="gY8Zco-nnhK0H6aGIAgo-164" target="gY8Zco-nnhK0H6aGIAgo-165" edge="1">
          <mxGeometry width="50" height="50" relative="1" as="geometry">
            <mxPoint x="1479" y="2353" as="sourcePoint"/>
            <mxPoint x="1529" y="2303" as="targetPoint"/>
          </mxGeometry>
        </mxCell>
        <mxCell id="gY8Zco-nnhK0H6aGIAgo-267" value=":2888&lt;br&gt;:3888&lt;br&gt;:2181&lt;br&gt;:9092&lt;br&gt;:10092" style="text;html=1;resizable=0;points=[];align=center;verticalAlign=middle;labelBackgroundColor=#ffffff;" parent="gY8Zco-nnhK0H6aGIAgo-263" vertex="1" connectable="0">
          <mxGeometry x="-0.0388" y="2" relative="1" as="geometry">
            <mxPoint as="offset"/>
          </mxGeometry>
        </mxCell>
        <mxCell id="gY8Zco-nnhK0H6aGIAgo-264" value="" style="endArrow=classic;startArrow=classic;html=1;strokeColor=#d6b656;entryX=0;entryY=0.5;entryDx=0;entryDy=0;exitX=1;exitY=0.5;exitDx=0;exitDy=0;fillColor=#fff2cc;" parent="1" source="gY8Zco-nnhK0H6aGIAgo-165" target="gY8Zco-nnhK0H6aGIAgo-166" edge="1">
          <mxGeometry width="50" height="50" relative="1" as="geometry">
            <mxPoint x="1707" y="2355" as="sourcePoint"/>
            <mxPoint x="1757" y="2305" as="targetPoint"/>
          </mxGeometry>
        </mxCell>
        <mxCell id="gY8Zco-nnhK0H6aGIAgo-270" value=":2888&lt;br&gt;:3888&lt;br&gt;:2181&lt;br&gt;:9092&lt;br&gt;:10092" style="text;html=1;resizable=0;points=[];align=center;verticalAlign=middle;labelBackgroundColor=#ffffff;" parent="gY8Zco-nnhK0H6aGIAgo-264" vertex="1" connectable="0">
          <mxGeometry x="0.0156" y="1" relative="1" as="geometry">
            <mxPoint as="offset"/>
          </mxGeometry>
        </mxCell>
        <mxCell id="gY8Zco-nnhK0H6aGIAgo-265" value="" style="endArrow=classic;startArrow=classic;html=1;strokeColor=#9673a6;entryX=0.5;entryY=1;entryDx=0;entryDy=0;exitX=0.5;exitY=0;exitDx=0;exitDy=0;fillColor=#e1d5e7;" parent="1" source="gY8Zco-nnhK0H6aGIAgo-168" target="gY8Zco-nnhK0H6aGIAgo-167" edge="1">
          <mxGeometry width="50" height="50" relative="1" as="geometry">
            <mxPoint x="1115" y="2647" as="sourcePoint"/>
            <mxPoint x="1165" y="2597" as="targetPoint"/>
          </mxGeometry>
        </mxCell>
        <mxCell id="gY8Zco-nnhK0H6aGIAgo-271" value=":7051" style="text;html=1;resizable=0;points=[];align=center;verticalAlign=middle;labelBackgroundColor=#ffffff;" parent="gY8Zco-nnhK0H6aGIAgo-265" vertex="1" connectable="0">
          <mxGeometry x="0.0435" y="-2" relative="1" as="geometry">
            <mxPoint x="1" as="offset"/>
          </mxGeometry>
        </mxCell>
        <mxCell id="gY8Zco-nnhK0H6aGIAgo-266" value="" style="endArrow=classic;startArrow=classic;html=1;strokeColor=#9673a6;entryX=0.5;entryY=1;entryDx=0;entryDy=0;exitX=0.5;exitY=0;exitDx=0;exitDy=0;fillColor=#e1d5e7;jumpStyle=arc;jumpSize=8;" parent="1" source="gY8Zco-nnhK0H6aGIAgo-170" target="gY8Zco-nnhK0H6aGIAgo-169" edge="1">
          <mxGeometry width="50" height="50" relative="1" as="geometry">
            <mxPoint x="1947" y="2633" as="sourcePoint"/>
            <mxPoint x="1997" y="2583" as="targetPoint"/>
          </mxGeometry>
        </mxCell>
        <mxCell id="gY8Zco-nnhK0H6aGIAgo-272" value=":7051" style="text;html=1;resizable=0;points=[];align=center;verticalAlign=middle;labelBackgroundColor=#ffffff;" parent="gY8Zco-nnhK0H6aGIAgo-266" vertex="1" connectable="0">
          <mxGeometry x="0.0735" relative="1" as="geometry">
            <mxPoint as="offset"/>
          </mxGeometry>
        </mxCell>
        <mxCell id="gY8Zco-nnhK0H6aGIAgo-273" value="" style="endArrow=classic;startArrow=classic;html=1;strokeColor=#6881B3;entryX=0.25;entryY=1;entryDx=0;entryDy=0;exitX=0.25;exitY=0;exitDx=0;exitDy=0;" parent="1" source="gY8Zco-nnhK0H6aGIAgo-167" target="gY8Zco-nnhK0H6aGIAgo-164" edge="1">
          <mxGeometry width="50" height="50" relative="1" as="geometry">
            <mxPoint x="1287" y="2472" as="sourcePoint"/>
            <mxPoint x="1337" y="2422" as="targetPoint"/>
          </mxGeometry>
        </mxCell>
        <mxCell id="gY8Zco-nnhK0H6aGIAgo-274" value=":7051" style="text;html=1;resizable=0;points=[];align=center;verticalAlign=middle;labelBackgroundColor=#ffffff;" parent="gY8Zco-nnhK0H6aGIAgo-273" vertex="1" connectable="0">
          <mxGeometry x="-0.6133" y="-2" relative="1" as="geometry">
            <mxPoint as="offset"/>
          </mxGeometry>
        </mxCell>
        <mxCell id="gY8Zco-nnhK0H6aGIAgo-275" value=":7050" style="text;html=1;resizable=0;points=[];align=center;verticalAlign=middle;labelBackgroundColor=#ffffff;" parent="gY8Zco-nnhK0H6aGIAgo-273" vertex="1" connectable="0">
          <mxGeometry x="0.5952" y="-2" relative="1" as="geometry">
            <mxPoint as="offset"/>
          </mxGeometry>
        </mxCell>
        <mxCell id="gY8Zco-nnhK0H6aGIAgo-276" value="" style="endArrow=classic;startArrow=classic;html=1;strokeColor=#6881B3;entryX=0.75;entryY=1;entryDx=0;entryDy=0;exitX=0.75;exitY=0;exitDx=0;exitDy=0;" parent="1" source="gY8Zco-nnhK0H6aGIAgo-169" target="gY8Zco-nnhK0H6aGIAgo-166" edge="1">
          <mxGeometry width="50" height="50" relative="1" as="geometry">
            <mxPoint x="1965" y="2468" as="sourcePoint"/>
            <mxPoint x="2015" y="2418" as="targetPoint"/>
          </mxGeometry>
        </mxCell>
        <mxCell id="gY8Zco-nnhK0H6aGIAgo-277" value=":7051" style="text;html=1;resizable=0;points=[];align=center;verticalAlign=middle;labelBackgroundColor=#ffffff;" parent="gY8Zco-nnhK0H6aGIAgo-276" vertex="1" connectable="0">
          <mxGeometry x="-0.5736" y="-2" relative="1" as="geometry">
            <mxPoint x="1" y="1" as="offset"/>
          </mxGeometry>
        </mxCell>
        <mxCell id="gY8Zco-nnhK0H6aGIAgo-278" value=":7050" style="text;html=1;resizable=0;points=[];align=center;verticalAlign=middle;labelBackgroundColor=#ffffff;" parent="gY8Zco-nnhK0H6aGIAgo-276" vertex="1" connectable="0">
          <mxGeometry x="0.5556" y="-2" relative="1" as="geometry">
            <mxPoint x="1" y="1" as="offset"/>
          </mxGeometry>
        </mxCell>
        <mxCell id="sTmjkf9wLWOesbdi5qTJ-50" value="U链外部应用用户" style="text;html=1;resizable=0;points=[];autosize=1;align=center;verticalAlign=top;spacingTop=-4;fontSize=20;" parent="1" vertex="1">
          <mxGeometry x="327" y="2384" width="164" height="24" as="geometry"/>
        </mxCell>
        <mxCell id="wNHHVUWYG327KDc-E-Of-104" style="edgeStyle=orthogonalEdgeStyle;rounded=0;orthogonalLoop=1;jettySize=auto;html=1;exitX=0;exitY=0.5;exitDx=0;exitDy=0;entryX=0.75;entryY=1;entryDx=0;entryDy=0;startArrow=none;startFill=0;endArrow=classic;endFill=1;strokeColor=#d79b00;fillColor=#ffe6cc;" edge="1" parent="1" source="rclUoReHh533xrVrYDvn-1">
          <mxGeometry relative="1" as="geometry">
            <mxPoint x="1954" y="2814" as="sourcePoint"/>
            <mxPoint x="1678" y="2788" as="targetPoint"/>
            <Array as="points">
              <mxPoint x="1678" y="2814"/>
            </Array>
          </mxGeometry>
        </mxCell>
        <mxCell id="wNHHVUWYG327KDc-E-Of-105" value=":8888" style="text;html=1;resizable=0;points=[];align=center;verticalAlign=middle;labelBackgroundColor=#ffffff;" vertex="1" connectable="0" parent="wNHHVUWYG327KDc-E-Of-104">
          <mxGeometry x="-0.3377" y="-2" relative="1" as="geometry">
            <mxPoint as="offset"/>
          </mxGeometry>
        </mxCell>
        <mxCell id="rclUoReHh533xrVrYDvn-1" value="负载均衡器" style="rounded=0;whiteSpace=wrap;html=1;labelBackgroundColor=none;strokeColor=#6881B3;fillColor=none;fontSize=19;align=center;" parent="1" vertex="1">
          <mxGeometry x="1930" y="2750" width="150" height="129" as="geometry"/>
        </mxCell>
        <mxCell id="z6z0s-MIZYobqjLazBSK-10" value="" style="edgeStyle=orthogonalEdgeStyle;rounded=0;orthogonalLoop=1;jettySize=auto;html=1;fontSize=19;fillColor=#d5e8d4;strokeColor=#82b366;" parent="1" source="z6z0s-MIZYobqjLazBSK-1" target="z6z0s-MIZYobqjLazBSK-3" edge="1">
          <mxGeometry relative="1" as="geometry"/>
        </mxCell>
        <mxCell id="z6z0s-MIZYobqjLazBSK-11" value="&lt;span style=&quot;font-size: 15px&quot;&gt;:5432&lt;/span&gt;" style="text;html=1;resizable=0;points=[];align=center;verticalAlign=middle;labelBackgroundColor=#ffffff;fontSize=19;" parent="z6z0s-MIZYobqjLazBSK-10" vertex="1" connectable="0">
          <mxGeometry x="-0.2202" y="-1" relative="1" as="geometry">
            <mxPoint y="-1" as="offset"/>
          </mxGeometry>
        </mxCell>
        <mxCell id="wNHHVUWYG327KDc-E-Of-126" style="edgeStyle=orthogonalEdgeStyle;rounded=0;jumpStyle=arc;jumpSize=10;orthogonalLoop=1;jettySize=auto;html=1;exitX=0.5;exitY=1;exitDx=0;exitDy=0;entryX=0.25;entryY=1;entryDx=0;entryDy=0;startArrow=none;startFill=0;endArrow=classic;endFill=1;strokeColor=#82b366;fontSize=12;fillColor=#d5e8d4;" edge="1" parent="1" source="z6z0s-MIZYobqjLazBSK-1" target="wNHHVUWYG327KDc-E-Of-26">
          <mxGeometry relative="1" as="geometry"/>
        </mxCell>
        <mxCell id="wNHHVUWYG327KDc-E-Of-127" value=":30001" style="text;html=1;resizable=0;points=[];align=center;verticalAlign=middle;labelBackgroundColor=#ffffff;fontSize=12;" vertex="1" connectable="0" parent="wNHHVUWYG327KDc-E-Of-126">
          <mxGeometry x="0.5528" y="-2" relative="1" as="geometry">
            <mxPoint as="offset"/>
          </mxGeometry>
        </mxCell>
        <mxCell id="z6z0s-MIZYobqjLazBSK-1" value="监控平台&lt;br style=&quot;font-size: 19px&quot;&gt;redis、MQ、jstorm服务器" style="rounded=0;whiteSpace=wrap;html=1;fontSize=19;align=center;fillColor=#d5e8d4;strokeColor=#82b366;" parent="1" vertex="1">
          <mxGeometry x="1029" y="2914.5" width="160" height="71" as="geometry"/>
        </mxCell>
        <mxCell id="z6z0s-MIZYobqjLazBSK-13" style="edgeStyle=orthogonalEdgeStyle;rounded=0;orthogonalLoop=1;jettySize=auto;html=1;entryX=0;entryY=0.5;entryDx=0;entryDy=0;fontSize=19;fillColor=#d5e8d4;strokeColor=#82b366;" parent="1" target="z6z0s-MIZYobqjLazBSK-1" edge="1">
          <mxGeometry relative="1" as="geometry">
            <mxPoint x="911.5" y="2949.5" as="sourcePoint"/>
          </mxGeometry>
        </mxCell>
        <mxCell id="z6z0s-MIZYobqjLazBSK-14" value="&lt;font style=&quot;font-size: 15px&quot;&gt;:6379~6381&lt;/font&gt;" style="text;html=1;resizable=0;points=[];align=center;verticalAlign=middle;labelBackgroundColor=#ffffff;fontSize=19;" parent="z6z0s-MIZYobqjLazBSK-13" vertex="1" connectable="0">
          <mxGeometry x="-0.3412" relative="1" as="geometry">
            <mxPoint x="16" as="offset"/>
          </mxGeometry>
        </mxCell>
        <mxCell id="z6z0s-MIZYobqjLazBSK-15" style="edgeStyle=orthogonalEdgeStyle;rounded=0;orthogonalLoop=1;jettySize=auto;html=1;exitX=1;exitY=0.25;exitDx=0;exitDy=0;entryX=0;entryY=0.5;entryDx=0;entryDy=0;fontSize=19;fillColor=#d5e8d4;strokeColor=#82b366;" parent="1" source="z6z0s-MIZYobqjLazBSK-2" target="z6z0s-MIZYobqjLazBSK-3" edge="1">
          <mxGeometry relative="1" as="geometry"/>
        </mxCell>
        <mxCell id="z6z0s-MIZYobqjLazBSK-17" value="&lt;font style=&quot;font-size: 15px&quot;&gt;:5432&lt;/font&gt;" style="text;html=1;resizable=0;points=[];align=center;verticalAlign=middle;labelBackgroundColor=#ffffff;fontSize=19;" parent="z6z0s-MIZYobqjLazBSK-15" vertex="1" connectable="0">
          <mxGeometry x="-0.3647" relative="1" as="geometry">
            <mxPoint as="offset"/>
          </mxGeometry>
        </mxCell>
        <mxCell id="wNHHVUWYG327KDc-E-Of-128" style="edgeStyle=orthogonalEdgeStyle;rounded=0;jumpStyle=arc;jumpSize=10;orthogonalLoop=1;jettySize=auto;html=1;exitX=0.5;exitY=1;exitDx=0;exitDy=0;entryX=0.5;entryY=1;entryDx=0;entryDy=0;startArrow=none;startFill=0;endArrow=classic;endFill=1;strokeColor=#67AB9F;fontSize=12;fillColor=#ffff88;" edge="1" parent="1" source="z6z0s-MIZYobqjLazBSK-2" target="wNHHVUWYG327KDc-E-Of-26">
          <mxGeometry relative="1" as="geometry">
            <Array as="points">
              <mxPoint x="850" y="3200"/>
              <mxPoint x="2412" y="3200"/>
            </Array>
          </mxGeometry>
        </mxCell>
        <mxCell id="wNHHVUWYG327KDc-E-Of-129" value=":40001" style="text;html=1;resizable=0;points=[];align=center;verticalAlign=middle;labelBackgroundColor=#ffffff;fontSize=12;" vertex="1" connectable="0" parent="wNHHVUWYG327KDc-E-Of-128">
          <mxGeometry x="0.5534" y="4" relative="1" as="geometry">
            <mxPoint as="offset"/>
          </mxGeometry>
        </mxCell>
        <mxCell id="z6z0s-MIZYobqjLazBSK-2" value="监控平台&lt;br&gt;服务器" style="rounded=0;whiteSpace=wrap;html=1;fontSize=19;align=center;fillColor=#d5e8d4;strokeColor=#82b366;" parent="1" vertex="1">
          <mxGeometry x="790" y="2750" width="120" height="236" as="geometry"/>
        </mxCell>
        <mxCell id="z6z0s-MIZYobqjLazBSK-3" value="监控平台数据库&lt;br&gt;PostgreSQL" style="rounded=0;whiteSpace=wrap;html=1;fontSize=19;align=center;fillColor=#d5e8d4;strokeColor=#82b366;" parent="1" vertex="1">
          <mxGeometry x="1031" y="2773.5" width="160" height="85" as="geometry"/>
        </mxCell>
        <mxCell id="wNHHVUWYG327KDc-E-Of-1" value="firewall" style="rounded=0;whiteSpace=wrap;html=1;labelBackgroundColor=none;strokeColor=#6881B3;fillColor=none;fontSize=15;align=center;rotation=0;" vertex="1" parent="1">
          <mxGeometry x="2605" y="2160" width="58" height="980" as="geometry"/>
        </mxCell>
        <mxCell id="wNHHVUWYG327KDc-E-Of-15" style="edgeStyle=orthogonalEdgeStyle;rounded=0;orthogonalLoop=1;jettySize=auto;html=1;exitX=0.5;exitY=0;exitDx=0;exitDy=0;entryX=0.5;entryY=1;entryDx=0;entryDy=0;strokeColor=#6881B3;" edge="1" parent="1" source="wNHHVUWYG327KDc-E-Of-5" target="wNHHVUWYG327KDc-E-Of-6">
          <mxGeometry relative="1" as="geometry"/>
        </mxCell>
        <mxCell id="wNHHVUWYG327KDc-E-Of-16" value=":9999" style="text;html=1;resizable=0;points=[];align=center;verticalAlign=middle;labelBackgroundColor=#ffffff;" vertex="1" connectable="0" parent="wNHHVUWYG327KDc-E-Of-15">
          <mxGeometry x="0.1111" y="3" relative="1" as="geometry">
            <mxPoint as="offset"/>
          </mxGeometry>
        </mxCell>
        <mxCell id="wNHHVUWYG327KDc-E-Of-22" style="edgeStyle=orthogonalEdgeStyle;rounded=0;orthogonalLoop=1;jettySize=auto;html=1;exitX=0;exitY=0.5;exitDx=0;exitDy=0;entryX=1.128;entryY=0.343;entryDx=0;entryDy=0;entryPerimeter=0;strokeColor=#6881B3;" edge="1" parent="1" source="wNHHVUWYG327KDc-E-Of-5">
          <mxGeometry relative="1" as="geometry">
            <mxPoint x="2662.9285714285716" y="2897.4285714285716" as="targetPoint"/>
          </mxGeometry>
        </mxCell>
        <mxCell id="wNHHVUWYG327KDc-E-Of-5" value="核心区U链业务应用&lt;br&gt;服务器" style="rounded=0;whiteSpace=wrap;html=1;labelBackgroundColor=none;strokeColor=#666666;fillColor=#f5f5f5;fontSize=19;align=center;fontColor=#333333;" vertex="1" parent="1">
          <mxGeometry x="2714.5" y="2798" width="131" height="200" as="geometry"/>
        </mxCell>
        <mxCell id="wNHHVUWYG327KDc-E-Of-6" value="核心区U链业务应用数据库" style="rounded=0;whiteSpace=wrap;html=1;labelBackgroundColor=none;strokeColor=#6881B3;fillColor=none;fontSize=19;align=center;" vertex="1" parent="1">
          <mxGeometry x="2718" y="2668.5" width="120" height="55" as="geometry"/>
        </mxCell>
        <mxCell id="wNHHVUWYG327KDc-E-Of-21" style="edgeStyle=orthogonalEdgeStyle;rounded=0;orthogonalLoop=1;jettySize=auto;html=1;exitX=0;exitY=0.5;exitDx=0;exitDy=0;entryX=1;entryY=0.5;entryDx=0;entryDy=0;strokeColor=#6881B3;" edge="1" parent="1" source="wNHHVUWYG327KDc-E-Of-8" target="wNHHVUWYG327KDc-E-Of-5">
          <mxGeometry relative="1" as="geometry"/>
        </mxCell>
        <mxCell id="wNHHVUWYG327KDc-E-Of-8" value="负载均衡器" style="rounded=0;whiteSpace=wrap;html=1;labelBackgroundColor=none;strokeColor=#6881B3;fillColor=none;fontSize=19;align=center;" vertex="1" parent="1">
          <mxGeometry x="2905.5" y="2798" width="55" height="200" as="geometry"/>
        </mxCell>
        <mxCell id="wNHHVUWYG327KDc-E-Of-10" value=":7001" style="text;html=1;resizable=0;points=[];autosize=1;align=left;verticalAlign=top;spacingTop=-4;fontSize=15;fillColor=#ffffff;" vertex="1" parent="1">
          <mxGeometry x="2932" y="2832" width="48" height="18" as="geometry"/>
        </mxCell>
        <mxCell id="wNHHVUWYG327KDc-E-Of-11" value="" style="endArrow=classic;html=1;strokeColor=#d79b00;fillColor=#ffe6cc;entryX=1;entryY=0.75;entryDx=0;entryDy=0;exitX=-0.059;exitY=0.524;exitDx=0;exitDy=0;exitPerimeter=0;" edge="1" parent="1" source="wNHHVUWYG327KDc-E-Of-13">
          <mxGeometry width="50" height="50" relative="1" as="geometry">
            <mxPoint x="3150.5" y="3055" as="sourcePoint"/>
            <mxPoint x="2663" y="3036.500000000002" as="targetPoint"/>
          </mxGeometry>
        </mxCell>
        <mxCell id="wNHHVUWYG327KDc-E-Of-13" value="区块链服务平台用户" style="text;html=1;resizable=0;points=[];autosize=1;align=center;verticalAlign=top;spacingTop=-4;fontSize=20;" vertex="1" parent="1">
          <mxGeometry x="3016.5" y="3025" width="190" height="24" as="geometry"/>
        </mxCell>
        <mxCell id="wNHHVUWYG327KDc-E-Of-14" value="U链内部应用用户" style="text;html=1;resizable=0;points=[];autosize=1;align=center;verticalAlign=top;spacingTop=-4;fontSize=20;" vertex="1" parent="1">
          <mxGeometry x="3019.5" y="2886" width="164" height="24" as="geometry"/>
        </mxCell>
        <mxCell id="wNHHVUWYG327KDc-E-Of-17" value="" style="endArrow=classic;html=1;entryX=1;entryY=0.5;entryDx=0;entryDy=0;exitX=-0.044;exitY=0.518;exitDx=0;exitDy=0;exitPerimeter=0;strokeColor=#6881B3;" edge="1" parent="1" source="wNHHVUWYG327KDc-E-Of-14" target="wNHHVUWYG327KDc-E-Of-8">
          <mxGeometry width="50" height="50" relative="1" as="geometry">
            <mxPoint x="3068.5" y="3009" as="sourcePoint"/>
            <mxPoint x="3118.5" y="2959" as="targetPoint"/>
          </mxGeometry>
        </mxCell>
        <mxCell id="wNHHVUWYG327KDc-E-Of-23" value="" style="endArrow=classic;html=1;strokeColor=#9673a6;fillColor=#e1d5e7;entryX=1;entryY=0.75;entryDx=0;entryDy=0;exitX=-0.059;exitY=0.524;exitDx=0;exitDy=0;exitPerimeter=0;" edge="1" source="wNHHVUWYG327KDc-E-Of-25" parent="1">
          <mxGeometry width="50" height="50" relative="1" as="geometry">
            <mxPoint x="3150.5" y="3128" as="sourcePoint"/>
            <mxPoint x="2663" y="3109.500000000002" as="targetPoint"/>
          </mxGeometry>
        </mxCell>
        <mxCell id="wNHHVUWYG327KDc-E-Of-25" value="平台监控用户" style="text;html=1;resizable=0;points=[];autosize=1;align=center;verticalAlign=top;spacingTop=-4;fontSize=20;" vertex="1" parent="1">
          <mxGeometry x="3030.5" y="3098" width="130" height="24" as="geometry"/>
        </mxCell>
        <mxCell id="wNHHVUWYG327KDc-E-Of-35" style="edgeStyle=orthogonalEdgeStyle;rounded=0;orthogonalLoop=1;jettySize=auto;html=1;exitX=0.25;exitY=0;exitDx=0;exitDy=0;entryX=0.25;entryY=1;entryDx=0;entryDy=0;strokeColor=#9673a6;fillColor=#e1d5e7;" edge="1" parent="1">
          <mxGeometry relative="1" as="geometry">
            <mxPoint x="2346.2857142857147" y="2839.2857142857147" as="sourcePoint"/>
            <mxPoint x="2346.2857142857147" y="2727.857142857143" as="targetPoint"/>
          </mxGeometry>
        </mxCell>
        <mxCell id="wNHHVUWYG327KDc-E-Of-38" value=":8001" style="text;html=1;resizable=0;points=[];align=center;verticalAlign=middle;labelBackgroundColor=#ffffff;" vertex="1" connectable="0" parent="wNHHVUWYG327KDc-E-Of-35">
          <mxGeometry x="0.3333" relative="1" as="geometry">
            <mxPoint as="offset"/>
          </mxGeometry>
        </mxCell>
        <mxCell id="wNHHVUWYG327KDc-E-Of-36" style="edgeStyle=orthogonalEdgeStyle;rounded=0;orthogonalLoop=1;jettySize=auto;html=1;exitX=0.5;exitY=0;exitDx=0;exitDy=0;entryX=0.5;entryY=1;entryDx=0;entryDy=0;strokeColor=#d79b00;fillColor=#ffe6cc;" edge="1" parent="1">
          <mxGeometry relative="1" as="geometry">
            <mxPoint x="2370.4285714285716" y="2839.2857142857147" as="sourcePoint"/>
            <mxPoint x="2370.4285714285716" y="2727.857142857143" as="targetPoint"/>
          </mxGeometry>
        </mxCell>
        <mxCell id="wNHHVUWYG327KDc-E-Of-39" value=":7001" style="text;html=1;resizable=0;points=[];align=center;verticalAlign=middle;labelBackgroundColor=#ffffff;" vertex="1" connectable="0" parent="wNHHVUWYG327KDc-E-Of-36">
          <mxGeometry x="-0.2308" relative="1" as="geometry">
            <mxPoint as="offset"/>
          </mxGeometry>
        </mxCell>
        <mxCell id="wNHHVUWYG327KDc-E-Of-37" style="edgeStyle=orthogonalEdgeStyle;rounded=0;orthogonalLoop=1;jettySize=auto;html=1;exitX=0.75;exitY=0;exitDx=0;exitDy=0;entryX=0.75;entryY=1;entryDx=0;entryDy=0;strokeColor=#6881B3;" edge="1" parent="1">
          <mxGeometry relative="1" as="geometry">
            <mxPoint x="2395.5714285714294" y="2839.2857142857147" as="sourcePoint"/>
            <mxPoint x="2395.5714285714294" y="2727.857142857143" as="targetPoint"/>
          </mxGeometry>
        </mxCell>
        <mxCell id="wNHHVUWYG327KDc-E-Of-44" style="edgeStyle=orthogonalEdgeStyle;rounded=0;orthogonalLoop=1;jettySize=auto;html=1;exitX=0.75;exitY=0;exitDx=0;exitDy=0;entryX=0.75;entryY=1;entryDx=0;entryDy=0;strokeColor=#b85450;fillColor=#f8cecc;" edge="1" parent="1">
          <mxGeometry relative="1" as="geometry">
            <mxPoint x="2478.5714285714294" y="2839.2857142857147" as="sourcePoint"/>
            <mxPoint x="2478.5714285714294" y="2727.857142857143" as="targetPoint"/>
          </mxGeometry>
        </mxCell>
        <mxCell id="wNHHVUWYG327KDc-E-Of-45" value=":20001&lt;br&gt;:20002&lt;br&gt;:20003" style="text;html=1;resizable=0;points=[];align=center;verticalAlign=middle;labelBackgroundColor=#ffffff;" vertex="1" connectable="0" parent="wNHHVUWYG327KDc-E-Of-44">
          <mxGeometry x="0.2308" y="-3" relative="1" as="geometry">
            <mxPoint as="offset"/>
          </mxGeometry>
        </mxCell>
        <mxCell id="wNHHVUWYG327KDc-E-Of-46" style="edgeStyle=orthogonalEdgeStyle;rounded=0;orthogonalLoop=1;jettySize=auto;html=1;exitX=0.75;exitY=0;exitDx=0;exitDy=0;entryX=0.75;entryY=1;entryDx=0;entryDy=0;strokeColor=#82b366;fillColor=#d5e8d4;" edge="1" parent="1">
          <mxGeometry relative="1" as="geometry">
            <mxPoint x="2453.5714285714294" y="2839.2857142857147" as="sourcePoint"/>
            <mxPoint x="2453.5714285714294" y="2727.857142857143" as="targetPoint"/>
          </mxGeometry>
        </mxCell>
        <mxCell id="wNHHVUWYG327KDc-E-Of-47" value=":30001" style="text;html=1;resizable=0;points=[];align=center;verticalAlign=middle;labelBackgroundColor=#ffffff;" vertex="1" connectable="0" parent="wNHHVUWYG327KDc-E-Of-46">
          <mxGeometry x="-0.3333" y="-1" relative="1" as="geometry">
            <mxPoint as="offset"/>
          </mxGeometry>
        </mxCell>
        <mxCell id="wNHHVUWYG327KDc-E-Of-130" style="edgeStyle=orthogonalEdgeStyle;rounded=0;jumpStyle=arc;jumpSize=10;orthogonalLoop=1;jettySize=auto;html=1;exitX=0.5;exitY=0;exitDx=0;exitDy=0;startArrow=none;startFill=0;endArrow=classic;endFill=1;strokeColor=#67AB9F;fontSize=12;" edge="1" parent="1">
          <mxGeometry relative="1" as="geometry">
            <mxPoint x="2424" y="2840" as="sourcePoint"/>
            <mxPoint x="2424" y="2730" as="targetPoint"/>
          </mxGeometry>
        </mxCell>
        <mxCell id="wNHHVUWYG327KDc-E-Of-131" value=":40001" style="text;html=1;resizable=0;points=[];align=center;verticalAlign=middle;labelBackgroundColor=#ffffff;fontSize=12;" vertex="1" connectable="0" parent="wNHHVUWYG327KDc-E-Of-130">
          <mxGeometry x="0.3818" y="-4" relative="1" as="geometry">
            <mxPoint as="offset"/>
          </mxGeometry>
        </mxCell>
        <mxCell id="wNHHVUWYG327KDc-E-Of-26" value="负载均衡器" style="rounded=0;whiteSpace=wrap;html=1;labelBackgroundColor=none;strokeColor=#6881B3;fillColor=none;fontSize=19;align=center;" vertex="1" parent="1">
          <mxGeometry x="2336" y="2840.5" width="150" height="300" as="geometry"/>
        </mxCell>
        <mxCell id="wNHHVUWYG327KDc-E-Of-76" style="edgeStyle=orthogonalEdgeStyle;rounded=0;orthogonalLoop=1;jettySize=auto;html=1;entryX=1;entryY=0.25;entryDx=0;entryDy=0;startArrow=none;startFill=0;endArrow=classic;endFill=1;strokeColor=#6881B3;" edge="1" parent="1" source="wNHHVUWYG327KDc-E-Of-27" target="gY8Zco-nnhK0H6aGIAgo-169">
          <mxGeometry relative="1" as="geometry">
            <mxPoint x="2560" y="2240" as="sourcePoint"/>
            <Array as="points">
              <mxPoint x="2390" y="2528"/>
              <mxPoint x="2390" y="2528"/>
            </Array>
          </mxGeometry>
        </mxCell>
        <mxCell id="wNHHVUWYG327KDc-E-Of-78" value=":7153 -&amp;gt; :7053" style="text;html=1;resizable=0;points=[];align=center;verticalAlign=middle;labelBackgroundColor=#ffffff;" vertex="1" connectable="0" parent="wNHHVUWYG327KDc-E-Of-76">
          <mxGeometry x="-0.5899" y="-3" relative="1" as="geometry">
            <mxPoint x="6" as="offset"/>
          </mxGeometry>
        </mxCell>
        <mxCell id="wNHHVUWYG327KDc-E-Of-80" style="edgeStyle=orthogonalEdgeStyle;rounded=0;orthogonalLoop=1;jettySize=auto;html=1;entryX=1;entryY=0.25;entryDx=0;entryDy=0;startArrow=none;startFill=0;endArrow=classic;endFill=1;strokeColor=#6881B3;exitX=0;exitY=0.882;exitDx=0;exitDy=0;exitPerimeter=0;" edge="1" parent="1" source="wNHHVUWYG327KDc-E-Of-27" target="gY8Zco-nnhK0H6aGIAgo-170">
          <mxGeometry relative="1" as="geometry">
            <mxPoint x="2410" y="2652" as="sourcePoint"/>
            <Array as="points">
              <mxPoint x="2336" y="2652"/>
            </Array>
          </mxGeometry>
        </mxCell>
        <mxCell id="wNHHVUWYG327KDc-E-Of-81" value=":7251 -&amp;gt; :7051" style="text;html=1;resizable=0;points=[];align=center;verticalAlign=middle;labelBackgroundColor=#ffffff;" vertex="1" connectable="0" parent="wNHHVUWYG327KDc-E-Of-80">
          <mxGeometry x="-0.6506" y="-3" relative="1" as="geometry">
            <mxPoint x="-28" y="1" as="offset"/>
          </mxGeometry>
        </mxCell>
        <mxCell id="wNHHVUWYG327KDc-E-Of-84" style="edgeStyle=orthogonalEdgeStyle;rounded=0;orthogonalLoop=1;jettySize=auto;html=1;exitX=0.001;exitY=0.091;exitDx=0;exitDy=0;startArrow=none;startFill=0;endArrow=classic;endFill=1;strokeColor=#6881B3;entryX=0.75;entryY=0;entryDx=0;entryDy=0;exitPerimeter=0;jumpStyle=arc;jumpSize=10;" edge="1" parent="1" source="wNHHVUWYG327KDc-E-Of-27" target="gY8Zco-nnhK0H6aGIAgo-164">
          <mxGeometry relative="1" as="geometry">
            <mxPoint x="2340" y="2250" as="targetPoint"/>
            <Array as="points">
              <mxPoint x="1406" y="2188"/>
            </Array>
          </mxGeometry>
        </mxCell>
        <mxCell id="wNHHVUWYG327KDc-E-Of-92" value=":7150 -&amp;gt; :7050" style="text;html=1;resizable=0;points=[];align=center;verticalAlign=middle;labelBackgroundColor=#ffffff;" vertex="1" connectable="0" parent="wNHHVUWYG327KDc-E-Of-84">
          <mxGeometry x="-0.7399" y="-3" relative="1" as="geometry">
            <mxPoint as="offset"/>
          </mxGeometry>
        </mxCell>
        <mxCell id="wNHHVUWYG327KDc-E-Of-97" style="edgeStyle=orthogonalEdgeStyle;rounded=0;orthogonalLoop=1;jettySize=auto;html=1;exitX=-0.013;exitY=0.168;exitDx=0;exitDy=0;entryX=0.75;entryY=0;entryDx=0;entryDy=0;startArrow=none;startFill=0;endArrow=classic;endFill=1;strokeColor=#6881B3;exitPerimeter=0;" edge="1" parent="1" source="wNHHVUWYG327KDc-E-Of-27" target="gY8Zco-nnhK0H6aGIAgo-166">
          <mxGeometry relative="1" as="geometry">
            <Array as="points">
              <mxPoint x="1904" y="2254"/>
            </Array>
          </mxGeometry>
        </mxCell>
        <mxCell id="wNHHVUWYG327KDc-E-Of-98" value=":7350 -&amp;gt; :7050" style="text;html=1;resizable=0;points=[];align=center;verticalAlign=middle;labelBackgroundColor=#ffffff;" vertex="1" connectable="0" parent="wNHHVUWYG327KDc-E-Of-97">
          <mxGeometry x="-0.4043" y="-2" relative="1" as="geometry">
            <mxPoint x="23" y="-1" as="offset"/>
          </mxGeometry>
        </mxCell>
        <mxCell id="wNHHVUWYG327KDc-E-Of-101" style="edgeStyle=orthogonalEdgeStyle;rounded=0;orthogonalLoop=1;jettySize=auto;html=1;entryX=1;entryY=0.5;entryDx=0;entryDy=0;startArrow=none;startFill=0;endArrow=classic;endFill=1;strokeColor=#d79b00;fillColor=#ffe6cc;exitX=0.013;exitY=0.979;exitDx=0;exitDy=0;exitPerimeter=0;" edge="1" parent="1" source="wNHHVUWYG327KDc-E-Of-27" target="rclUoReHh533xrVrYDvn-1">
          <mxGeometry relative="1" as="geometry">
            <mxPoint x="2340" y="2708" as="sourcePoint"/>
          </mxGeometry>
        </mxCell>
        <mxCell id="wNHHVUWYG327KDc-E-Of-102" value=":17001" style="text;html=1;resizable=0;points=[];align=center;verticalAlign=middle;labelBackgroundColor=#ffffff;" vertex="1" connectable="0" parent="wNHHVUWYG327KDc-E-Of-101">
          <mxGeometry x="0.6723" relative="1" as="geometry">
            <mxPoint as="offset"/>
          </mxGeometry>
        </mxCell>
        <mxCell id="wNHHVUWYG327KDc-E-Of-27" value="内联接口" style="rounded=0;whiteSpace=wrap;html=1;labelBackgroundColor=none;strokeColor=#6881B3;fillColor=none;fontSize=19;align=center;" vertex="1" parent="1">
          <mxGeometry x="2336" y="2160" width="150" height="560" as="geometry"/>
        </mxCell>
        <mxCell id="wNHHVUWYG327KDc-E-Of-28" value="" style="endArrow=classic;html=1;exitX=0.044;exitY=0.684;exitDx=0;exitDy=0;exitPerimeter=0;fillColor=#ffe6cc;strokeColor=#d79b00;" edge="1" parent="1">
          <mxGeometry width="50" height="50" relative="1" as="geometry">
            <mxPoint x="2607.5519999999997" y="3036.7520000000004" as="sourcePoint"/>
            <mxPoint x="2493" y="3037" as="targetPoint"/>
          </mxGeometry>
        </mxCell>
        <mxCell id="wNHHVUWYG327KDc-E-Of-30" value=":7001" style="text;html=1;resizable=0;points=[];align=center;verticalAlign=middle;labelBackgroundColor=#ffffff;" vertex="1" connectable="0" parent="wNHHVUWYG327KDc-E-Of-28">
          <mxGeometry x="0.0472" relative="1" as="geometry">
            <mxPoint as="offset"/>
          </mxGeometry>
        </mxCell>
        <mxCell id="wNHHVUWYG327KDc-E-Of-29" value="" style="endArrow=classic;html=1;entryX=1.03;entryY=0.645;entryDx=0;entryDy=0;entryPerimeter=0;fillColor=#e1d5e7;strokeColor=#9673a6;" edge="1" parent="1">
          <mxGeometry width="50" height="50" relative="1" as="geometry">
            <mxPoint x="2608" y="3116" as="sourcePoint"/>
            <mxPoint x="2490.5" y="3116" as="targetPoint"/>
          </mxGeometry>
        </mxCell>
        <mxCell id="wNHHVUWYG327KDc-E-Of-31" value=":8001" style="text;html=1;resizable=0;points=[];align=center;verticalAlign=middle;labelBackgroundColor=#ffffff;" vertex="1" connectable="0" parent="wNHHVUWYG327KDc-E-Of-29">
          <mxGeometry x="0.0286" relative="1" as="geometry">
            <mxPoint as="offset"/>
          </mxGeometry>
        </mxCell>
        <mxCell id="wNHHVUWYG327KDc-E-Of-33" value="" style="endArrow=classic;html=1;exitX=-0.005;exitY=0.667;exitDx=0;exitDy=0;exitPerimeter=0;strokeColor=#6881B3;" edge="1" parent="1">
          <mxGeometry width="50" height="50" relative="1" as="geometry">
            <mxPoint x="2604.71" y="2893.241" as="sourcePoint"/>
            <mxPoint x="2486" y="2893" as="targetPoint"/>
          </mxGeometry>
        </mxCell>
        <mxCell id="wNHHVUWYG327KDc-E-Of-34" value="&lt;span style=&quot;font-size: 15px&quot;&gt;:7151&lt;/span&gt;&lt;br style=&quot;font-size: 15px&quot;&gt;&lt;span style=&quot;font-size: 15px&quot;&gt;:7251&lt;/span&gt;&lt;br style=&quot;font-size: 15px&quot;&gt;&lt;span style=&quot;font-size: 15px&quot;&gt;:7153&lt;/span&gt;&lt;br style=&quot;font-size: 15px&quot;&gt;&lt;span style=&quot;font-size: 15px&quot;&gt;:7253&lt;/span&gt;&lt;br style=&quot;font-size: 15px&quot;&gt;&lt;br style=&quot;font-size: 15px&quot;&gt;&lt;span style=&quot;font-size: 15px&quot;&gt;:7150&lt;/span&gt;&lt;br style=&quot;font-size: 15px&quot;&gt;&lt;span style=&quot;font-size: 15px&quot;&gt;:7250&lt;/span&gt;&lt;br style=&quot;font-size: 15px&quot;&gt;&lt;span style=&quot;font-size: 15px&quot;&gt;:7350&lt;/span&gt;" style="text;html=1;resizable=0;points=[];align=center;verticalAlign=middle;labelBackgroundColor=#ffffff;" vertex="1" connectable="0" parent="wNHHVUWYG327KDc-E-Of-33">
          <mxGeometry x="-0.1335" y="-3" relative="1" as="geometry">
            <mxPoint as="offset"/>
          </mxGeometry>
        </mxCell>
        <mxCell id="wNHHVUWYG327KDc-E-Of-56" value="短信平台" style="rounded=0;whiteSpace=wrap;html=1;labelBackgroundColor=none;strokeColor=#d79b00;fillColor=#ffe6cc;fontSize=19;align=center;" vertex="1" parent="1">
          <mxGeometry x="2997.5" y="2339" width="120" height="55" as="geometry"/>
        </mxCell>
        <mxCell id="wNHHVUWYG327KDc-E-Of-62" style="edgeStyle=orthogonalEdgeStyle;rounded=0;orthogonalLoop=1;jettySize=auto;html=1;exitX=0;exitY=0.25;exitDx=0;exitDy=0;entryX=1;entryY=0.5;entryDx=0;entryDy=0;strokeColor=#6881B3;" edge="1" parent="1" source="wNHHVUWYG327KDc-E-Of-58" target="wNHHVUWYG327KDc-E-Of-59">
          <mxGeometry relative="1" as="geometry"/>
        </mxCell>
        <mxCell id="wNHHVUWYG327KDc-E-Of-58" value="柜员管理系统" style="rounded=0;whiteSpace=wrap;html=1;labelBackgroundColor=none;strokeColor=#d79b00;fillColor=#ffe6cc;fontSize=19;align=center;" vertex="1" parent="1">
          <mxGeometry x="2997.5" y="2241" width="120" height="55" as="geometry"/>
        </mxCell>
        <mxCell id="wNHHVUWYG327KDc-E-Of-65" style="edgeStyle=orthogonalEdgeStyle;rounded=0;orthogonalLoop=1;jettySize=auto;html=1;exitX=0;exitY=0.5;exitDx=0;exitDy=0;strokeColor=#b85450;startArrow=classic;startFill=1;endArrow=none;endFill=0;fillColor=#f8cecc;" edge="1" parent="1" source="wNHHVUWYG327KDc-E-Of-59">
          <mxGeometry relative="1" as="geometry">
            <mxPoint x="2663" y="2233" as="targetPoint"/>
            <Array as="points">
              <mxPoint x="2663" y="2233"/>
            </Array>
          </mxGeometry>
        </mxCell>
        <mxCell id="wNHHVUWYG327KDc-E-Of-59" value="企业数据总线" style="rounded=0;whiteSpace=wrap;html=1;labelBackgroundColor=none;strokeColor=#d79b00;fillColor=#ffe6cc;fontSize=19;align=center;" vertex="1" parent="1">
          <mxGeometry x="2785.5" y="2205" width="120" height="55" as="geometry"/>
        </mxCell>
        <mxCell id="wNHHVUWYG327KDc-E-Of-63" style="edgeStyle=orthogonalEdgeStyle;rounded=0;orthogonalLoop=1;jettySize=auto;html=1;exitX=1;exitY=0.5;exitDx=0;exitDy=0;entryX=0;entryY=0.75;entryDx=0;entryDy=0;strokeColor=#6881B3;" edge="1" parent="1" source="wNHHVUWYG327KDc-E-Of-60" target="wNHHVUWYG327KDc-E-Of-58">
          <mxGeometry relative="1" as="geometry"/>
        </mxCell>
        <mxCell id="wNHHVUWYG327KDc-E-Of-132" style="edgeStyle=orthogonalEdgeStyle;rounded=0;jumpStyle=arc;jumpSize=10;orthogonalLoop=1;jettySize=auto;html=1;exitX=0;exitY=0.75;exitDx=0;exitDy=0;entryX=0.948;entryY=0.155;entryDx=0;entryDy=0;entryPerimeter=0;startArrow=classic;startFill=1;endArrow=none;endFill=0;strokeColor=#67AB9F;fontSize=12;" edge="1" parent="1" source="wNHHVUWYG327KDc-E-Of-60" target="wNHHVUWYG327KDc-E-Of-1">
          <mxGeometry relative="1" as="geometry"/>
        </mxCell>
        <mxCell id="wNHHVUWYG327KDc-E-Of-60" value="渠道管理平台" style="rounded=0;whiteSpace=wrap;html=1;labelBackgroundColor=none;strokeColor=#d79b00;fillColor=#ffe6cc;fontSize=19;align=center;" vertex="1" parent="1">
          <mxGeometry x="2785.5" y="2271" width="120" height="55" as="geometry"/>
        </mxCell>
        <mxCell id="wNHHVUWYG327KDc-E-Of-64" style="edgeStyle=orthogonalEdgeStyle;rounded=0;orthogonalLoop=1;jettySize=auto;html=1;exitX=1;exitY=0.5;exitDx=0;exitDy=0;entryX=0;entryY=0.5;entryDx=0;entryDy=0;strokeColor=#6881B3;" edge="1" parent="1" source="wNHHVUWYG327KDc-E-Of-61" target="wNHHVUWYG327KDc-E-Of-56">
          <mxGeometry relative="1" as="geometry"/>
        </mxCell>
        <mxCell id="wNHHVUWYG327KDc-E-Of-61" value="企业服务总线" style="rounded=0;whiteSpace=wrap;html=1;labelBackgroundColor=none;strokeColor=#d79b00;fillColor=#ffe6cc;fontSize=19;align=center;" vertex="1" parent="1">
          <mxGeometry x="2785.5" y="2339" width="120" height="55" as="geometry"/>
        </mxCell>
        <mxCell id="wNHHVUWYG327KDc-E-Of-68" style="edgeStyle=orthogonalEdgeStyle;rounded=0;orthogonalLoop=1;jettySize=auto;html=1;exitX=0;exitY=0.75;exitDx=0;exitDy=0;entryX=1.079;entryY=0.06;entryDx=0;entryDy=0;entryPerimeter=0;strokeColor=#b85450;startArrow=classic;startFill=1;endArrow=none;endFill=0;fillColor=#f8cecc;" edge="1" parent="1">
          <mxGeometry relative="1" as="geometry">
            <mxPoint x="2606" y="2251" as="sourcePoint"/>
            <mxPoint x="2488.857142857143" y="2251" as="targetPoint"/>
          </mxGeometry>
        </mxCell>
        <mxCell id="wNHHVUWYG327KDc-E-Of-69" style="edgeStyle=orthogonalEdgeStyle;rounded=0;orthogonalLoop=1;jettySize=auto;html=1;exitX=0;exitY=0.5;exitDx=0;exitDy=0;entryX=1.03;entryY=0.14;entryDx=0;entryDy=0;entryPerimeter=0;strokeColor=#b85450;startArrow=classic;startFill=1;endArrow=none;endFill=0;fillColor=#f8cecc;" edge="1" parent="1">
          <mxGeometry relative="1" as="geometry">
            <mxPoint x="2607" y="2285.285714285714" as="sourcePoint"/>
            <mxPoint x="2487" y="2285.285714285714" as="targetPoint"/>
          </mxGeometry>
        </mxCell>
        <mxCell id="wNHHVUWYG327KDc-E-Of-71" style="edgeStyle=orthogonalEdgeStyle;rounded=0;orthogonalLoop=1;jettySize=auto;html=1;exitX=0;exitY=0.5;exitDx=0;exitDy=0;entryX=1.03;entryY=0.14;entryDx=0;entryDy=0;entryPerimeter=0;strokeColor=#b85450;startArrow=classic;startFill=1;endArrow=none;endFill=0;fillColor=#f8cecc;" edge="1" parent="1">
          <mxGeometry relative="1" as="geometry">
            <mxPoint x="2605" y="2355.5" as="sourcePoint"/>
            <mxPoint x="2485" y="2355.5" as="targetPoint"/>
          </mxGeometry>
        </mxCell>
        <mxCell id="wNHHVUWYG327KDc-E-Of-72" value="" style="endArrow=classic;html=1;strokeColor=#b85450;entryX=0;entryY=0.25;entryDx=0;entryDy=0;fillColor=#f8cecc;" edge="1" parent="1" target="wNHHVUWYG327KDc-E-Of-61">
          <mxGeometry width="50" height="50" relative="1" as="geometry">
            <mxPoint x="2662" y="2353" as="sourcePoint"/>
            <mxPoint x="2712" y="2360" as="targetPoint"/>
          </mxGeometry>
        </mxCell>
        <mxCell id="wNHHVUWYG327KDc-E-Of-73" style="edgeStyle=orthogonalEdgeStyle;rounded=0;orthogonalLoop=1;jettySize=auto;html=1;exitX=0;exitY=0.5;exitDx=0;exitDy=0;entryX=1.03;entryY=0.14;entryDx=0;entryDy=0;entryPerimeter=0;strokeColor=#82b366;startArrow=classic;startFill=1;endArrow=none;endFill=0;fillColor=#d5e8d4;" edge="1" parent="1">
          <mxGeometry relative="1" as="geometry">
            <mxPoint x="2606" y="2381" as="sourcePoint"/>
            <mxPoint x="2486" y="2381" as="targetPoint"/>
          </mxGeometry>
        </mxCell>
        <mxCell id="wNHHVUWYG327KDc-E-Of-74" value="" style="endArrow=classic;html=1;strokeColor=#82b366;entryX=0;entryY=0.75;entryDx=0;entryDy=0;fillColor=#d5e8d4;" edge="1" parent="1" target="wNHHVUWYG327KDc-E-Of-61">
          <mxGeometry width="50" height="50" relative="1" as="geometry">
            <mxPoint x="2662" y="2380" as="sourcePoint"/>
            <mxPoint x="2602" y="2400" as="targetPoint"/>
          </mxGeometry>
        </mxCell>
        <mxCell id="wNHHVUWYG327KDc-E-Of-88" value="" style="endArrow=classic;html=1;strokeColor=#6881B3;entryX=1;entryY=0.75;entryDx=0;entryDy=0;exitX=0.001;exitY=0.704;exitDx=0;exitDy=0;exitPerimeter=0;" edge="1" parent="1" source="wNHHVUWYG327KDc-E-Of-27" target="gY8Zco-nnhK0H6aGIAgo-169">
          <mxGeometry width="50" height="50" relative="1" as="geometry">
            <mxPoint x="2330" y="2580" as="sourcePoint"/>
            <mxPoint x="2380" y="2530" as="targetPoint"/>
          </mxGeometry>
        </mxCell>
        <mxCell id="wNHHVUWYG327KDc-E-Of-89" value=":7151 -&amp;gt; :7051" style="text;html=1;resizable=0;points=[];align=center;verticalAlign=middle;labelBackgroundColor=#ffffff;" vertex="1" connectable="0" parent="wNHHVUWYG327KDc-E-Of-88">
          <mxGeometry x="-0.5993" y="-3" relative="1" as="geometry">
            <mxPoint x="6" as="offset"/>
          </mxGeometry>
        </mxCell>
        <mxCell id="wNHHVUWYG327KDc-E-Of-93" value="" style="endArrow=classic;html=1;strokeColor=#b85450;entryX=0;entryY=0.25;entryDx=0;entryDy=0;fillColor=#f8cecc;" edge="1" parent="1" target="wNHHVUWYG327KDc-E-Of-60">
          <mxGeometry width="50" height="50" relative="1" as="geometry">
            <mxPoint x="2663" y="2285" as="sourcePoint"/>
            <mxPoint x="2726" y="2280" as="targetPoint"/>
          </mxGeometry>
        </mxCell>
        <mxCell id="wNHHVUWYG327KDc-E-Of-94" value="" style="endArrow=classic;html=1;strokeColor=#6881B3;entryX=1;entryY=0.75;entryDx=0;entryDy=0;exitX=0;exitY=0.929;exitDx=0;exitDy=0;exitPerimeter=0;" edge="1" parent="1" source="wNHHVUWYG327KDc-E-Of-27" target="gY8Zco-nnhK0H6aGIAgo-170">
          <mxGeometry width="50" height="50" relative="1" as="geometry">
            <mxPoint x="2090" y="2740" as="sourcePoint"/>
            <mxPoint x="2140" y="2690" as="targetPoint"/>
          </mxGeometry>
        </mxCell>
        <mxCell id="wNHHVUWYG327KDc-E-Of-95" value=":7253 -&amp;gt; :7053" style="text;html=1;resizable=0;points=[];align=center;verticalAlign=middle;labelBackgroundColor=#ffffff;" vertex="1" connectable="0" parent="wNHHVUWYG327KDc-E-Of-94">
          <mxGeometry x="-0.5241" relative="1" as="geometry">
            <mxPoint as="offset"/>
          </mxGeometry>
        </mxCell>
        <mxCell id="wNHHVUWYG327KDc-E-Of-122" style="edgeStyle=orthogonalEdgeStyle;rounded=0;jumpStyle=arc;jumpSize=10;orthogonalLoop=1;jettySize=auto;html=1;exitX=0;exitY=0.5;exitDx=0;exitDy=0;entryX=1;entryY=0.5;entryDx=0;entryDy=0;startArrow=none;startFill=0;endArrow=classic;endFill=1;strokeColor=#b85450;fontSize=20;fillColor=#f8cecc;" edge="1" parent="1" source="wNHHVUWYG327KDc-E-Of-121" target="gY8Zco-nnhK0H6aGIAgo-221">
          <mxGeometry relative="1" as="geometry"/>
        </mxCell>
        <mxCell id="wNHHVUWYG327KDc-E-Of-123" value=":5432" style="text;html=1;resizable=0;points=[];align=center;verticalAlign=middle;labelBackgroundColor=#ffffff;fontSize=12;" vertex="1" connectable="0" parent="wNHHVUWYG327KDc-E-Of-122">
          <mxGeometry x="-0.087" relative="1" as="geometry">
            <mxPoint as="offset"/>
          </mxGeometry>
        </mxCell>
        <mxCell id="wNHHVUWYG327KDc-E-Of-134" style="edgeStyle=orthogonalEdgeStyle;rounded=0;jumpStyle=arc;jumpSize=10;orthogonalLoop=1;jettySize=auto;html=1;exitX=1;exitY=0.5;exitDx=0;exitDy=0;entryX=0;entryY=0.665;entryDx=0;entryDy=0;entryPerimeter=0;startArrow=none;startFill=0;endArrow=classic;endFill=1;strokeColor=#b85450;fontSize=12;fillColor=#f8cecc;" edge="1" parent="1" source="wNHHVUWYG327KDc-E-Of-121" target="wNHHVUWYG327KDc-E-Of-26">
          <mxGeometry relative="1" as="geometry"/>
        </mxCell>
        <mxCell id="wNHHVUWYG327KDc-E-Of-135" value=":20001&lt;br&gt;:20002&lt;br&gt;:20003" style="text;html=1;resizable=0;points=[];align=center;verticalAlign=middle;labelBackgroundColor=#ffffff;fontSize=12;" vertex="1" connectable="0" parent="wNHHVUWYG327KDc-E-Of-134">
          <mxGeometry x="-0.1748" y="-2" relative="1" as="geometry">
            <mxPoint as="offset"/>
          </mxGeometry>
        </mxCell>
        <mxCell id="wNHHVUWYG327KDc-E-Of-121" value="数据集成服务器" style="rounded=0;whiteSpace=wrap;html=1;fontSize=20;fillColor=#dae8fc;strokeColor=#6c8ebf;" vertex="1" parent="1">
          <mxGeometry x="1810" y="2998" width="240" height="85" as="geometry"/>
        </mxCell>
        <mxCell id="wNHHVUWYG327KDc-E-Of-133" style="edgeStyle=orthogonalEdgeStyle;rounded=0;orthogonalLoop=1;jettySize=auto;html=1;exitX=0;exitY=0.5;exitDx=0;exitDy=0;entryX=1.03;entryY=0.14;entryDx=0;entryDy=0;entryPerimeter=0;strokeColor=#67AB9F;startArrow=classic;startFill=1;endArrow=none;endFill=0;fillColor=#f8cecc;" edge="1" parent="1">
          <mxGeometry relative="1" as="geometry">
            <mxPoint x="2605" y="2312.5" as="sourcePoint"/>
            <mxPoint x="2485" y="2312.5" as="targetPoint"/>
          </mxGeometry>
        </mxCell>
      </root>
    </mxGraphModel>
  </diagram>
</mxfile>
